SplineFontDB: 3.2
FontName: Untitled1
FullName: Untitled1
FamilyName: Untitled1
Weight: Regular
Copyright: Copyright (c) 2023, adsla
UComments: "2023-4-9: Created with FontForge (http://fontforge.org)"
Version: 001.000
ItalicAngle: 0
UnderlinePosition: -100
UnderlineWidth: 50
Ascent: 800
Descent: 200
InvalidEm: 0
LayerCount: 2
Layer: 0 0 "Back" 1
Layer: 1 0 "Fore" 0
XUID: [1021 66 -1298210728 31895]
StyleMap: 0x0000
FSType: 0
OS2Version: 0
OS2_WeightWidthSlopeOnly: 0
OS2_UseTypoMetrics: 1
CreationTime: 1681056183
ModificationTime: 1684154071
OS2TypoAscent: 0
OS2TypoAOffset: 1
OS2TypoDescent: 0
OS2TypoDOffset: 1
OS2TypoLinegap: 90
OS2WinAscent: 0
OS2WinAOffset: 1
OS2WinDescent: 0
OS2WinDOffset: 1
HheadAscent: 0
HheadAOffset: 1
HheadDescent: 0
HheadDOffset: 1
DEI: 91125
Encoding: ISO8859-1
UnicodeInterp: none
NameList: AGL For New Fonts
DisplaySize: -48
AntiAlias: 1
FitToEm: 0
WinInfo: 19 19 13
BeginChars: 256 61

StartChar: a
Encoding: 97 97 0
Width: 588
Flags: HW
HStem: 431.513 81.1045<176.379 354.333>
VStem: 31.525 66.2539<159.166 345.939>
LayerCount: 2
Fore
SplineSet
97.779296875 246.458984375 m 0
 97.779296875 168.780273438 146.84375 76.8603515625 263.415039062 79.6806640625 c 0
 405.0625 83.107421875 426.765625 169.923828125 426.765625 169.923828125 c 0
 421.053710938 228.180664062 424.48046875 261.30859375 429.05078125 324.135742188 c 1
 429.05078125 324.135742188 395.922851562 431.512695312 267.984375 431.512695312 c 0
 129.764648438 431.512695312 97.779296875 328.704101562 97.779296875 246.458984375 c 0
  Spiro
    97.78 246.459 o
    114.783 168.145 o
    168.737 104.356 o
    263.415 79.6804 o
    368.647 104.56 o
    415.918 147.328 o
    426.766 169.923 o
    423.804 221.787 o
    425.161 269.227 o
    429.05 324.136 v
    415.752 351.926 o
    366.532 403.722 o
    267.985 431.512 o
    162.502 401.867 o
    111.162 330.907 o
    0 0 z
  EndSpiro
273.696289062 512.6171875 m 0
 410.7734375 512.6171875 443.900390625 407.524414062 443.900390625 407.524414062 c 1
 443.900390625 407.524414062 461.893554688 491.928710938 466.74609375 583.440429688 c 0
 474.743164062 734.225585938 121.767578125 754.787109375 121.767578125 642.83984375 c 0
 121.767578125 589.15234375 202.873046875 672.541015625 202.873046875 592.579101562 c 16
 202.873046875 512.6171875 51.4951171875 516.182617188 46.3759765625 606.287109375 c 0
 40.6640625 706.810546875 125.1953125 779.91796875 296.541992188 779.91796875 c 0
 467.889648438 779.91796875 577.55078125 706.810546875 546.708007812 524.040039062 c 0
 521.3828125 373.959960938 500.739257812 271.293945312 512.439453125 145.934570312 c 0
 520.435546875 60.2607421875 585.546875 10 533 10 c 0
 462.158203125 10 440.50390625 97.751953125 440.473632812 97.9580078125 c 1
 381.073242188 -10.5615234375 40.6279296875 -61.818359375 31.525390625 219.04296875 c 0
 23.529296875 465.782226562 164.033203125 512.6171875 273.696289062 512.6171875 c 0
  Spiro
    273.696 512.617 o
    378.671 485.418 o
    430.265 434.724 o
    443.9 407.524 v
    448.736 432.748 o
    458.677 497.239 o
    466.746 583.441 o
    381.015 690.669 o
    212.828 710.679 o
    121.768 642.84 o
    142.759 623.713 o
    181.882 629.213 o
    202.873 592.579 o
    163.505 540.595 o
    89.155 544.95 o
    46.376 606.287 o
    70.564 695.902 o
    154.374 757.285 o
    296.542 779.918 o
    444.287 754.247 o
    533.689 671.496 o
    546.708 524.04 o
    523.987 387.294 o
    510.489 266.208 o
    512.439 145.934 o
    532.974 72.6753 o
    552.807 26.1716 o
    533 9.99966 o
    477.574 32.7189 o
    448.715 75.1015 o
    440.473 97.9579 v
    310.251 18.7456 o
    128.233 38.7978 o
    31.526 219.043 o
    66.316 404.686 o
    160.506 491.384 o
    0 0 z
  EndSpiro
EndSplineSet
EndChar

StartChar: b
Encoding: 98 98 1
Width: 725
Flags: HW
LayerCount: 2
Fore
SplineSet
138 68 m 1
 131.513671875 68.73828125 452 404 530 286 c 0
 709.170898438 14.947265625 141.213867188 52.1923828125 138 68 c 1
36 632 m 9
 36 632 210 516 166 304 c 0
 122 92 86.9521484375 34.5498046875 42 24 c 0
 -10.4609375 11.6884765625 839.556640625 -65.71484375 654 278 c 0
 469.059570312 620.57421875 176 238 162 202 c 8
 148 166 324 504 280 614 c 0
 236 724 140 584 36 632 c 9
EndSplineSet
EndChar

StartChar: c
Encoding: 99 99 2
Width: 624
Flags: HW
HStem: 6 136<198 472>
LayerCount: 2
Fore
SplineSet
43 545 m 1
 43 132 l 1
 43 132 162 6 164 6 c 0
 166 6 574 8 574 8 c 1
 472 142 l 1
 198 142 l 1
 199 538 l 1
 471 538 l 1
 588 682 l 1
 171 684 l 1
 43 545 l 1
EndSplineSet
EndChar

StartChar: d
Encoding: 100 100 3
Width: 542
Flags: HW
HStem: 7.51953 49.25<183.302 351.568> 423.9 44.7715<183.302 352.716>
VStem: 35.739 49.249<155.082 323.348> 452.119 44.7725<156.721 323.948 376.143 770.356>
LayerCount: 2
Fore
SplineSet
84.98828125 240.334960938 m 0
 84.98828125 138.8515625 167.0703125 56.76953125 268.5546875 56.76953125 c 0
 370.037109375 56.76953125 452.119140625 138.8515625 452.119140625 240.334960938 c 0
 452.119140625 341.817382812 370.037109375 423.900390625 268.5546875 423.900390625 c 0
 167.0703125 423.900390625 84.98828125 341.817382812 84.98828125 240.334960938 c 0
35.7392578125 238.095703125 m 0
 35.7392578125 365.696289062 138.71484375 468.671875 266.315429688 468.671875 c 0
 342.087890625 468.671875 409.17578125 432.360351562 451.174804688 376.142578125 c 1
 451.174804688 471.310546875 452.119140625 667.169921875 452.119140625 735.07421875 c 0
 452.119140625 803 497.009765625 807 497.009765625 735.8203125 c 0
 497.009765625 647.022460938 496.891601562 417.69140625 496.891601562 238.095703125 c 0
 496.891601562 110.49609375 393.916015625 7.51953125 266.315429688 7.51953125 c 0
 138.71484375 7.51953125 35.7392578125 110.49609375 35.7392578125 238.095703125 c 0
EndSplineSet
EndChar

StartChar: e
Encoding: 101 101 4
Width: 671
Flags: HW
HStem: 10 48<216.359 446.994> 264 20<129 570> 526 38<244.728 418.958>
LayerCount: 2
Fore
SplineSet
129 284 m 1
 570 284 l 25
 570 284 566 526 316 526 c 8
 66 526 21 58 309 58 c 0
 561 58 564 212 564 212 c 1
 630 213 l 25
 630 213 645 10 317 10 c 0
 -87 10 -50 564 312 564 c 0
 661 564 635 268 635 268 c 1
 127 264 l 1
 129 284 l 1
EndSplineSet
EndChar

StartChar: f
Encoding: 102 102 5
Width: 668
InSpiro: 1
Flags: HW
HStem: 1198.98 49.383<-8.79651e+10 -3.59742e+10>
LayerCount: 2
Fore
SplineSet
654.979492188 315.915039062 m 9
 654.979492188 315.915039062 493.91015625 235.379882812 302.809570312 295.440429688 c 0
 111.709960938 355.5 -164.020507812 270.870117188 -38.4404296875 -29.4296875 c 0
 87.1396484375 -329.729492188 265.517578125 18.998046875 347.854492188 410.100585938 c 0
 375.154296875 539.775390625 376.931640625 613.493164062 577.174804688 617.580078125 c 0
 777.830078125 621.674804688 573.520507812 330.560546875 311 492 c 0
 -10.162109375 689.5 110.344726562 386.895507812 110.344726562 386.895507812 c 1
 110.344726562 386.895507812 -24.4755859375 710.795898438 302.809570312 507.015625 c 0
 519.844726562 371.879882812 755.922851562 609.000976562 577.174804688 603.930664062 c 0
 384.709960938 598.470703125 394.264648438 501.555664062 372.424804688 406.004882812 c 0
 282.586914062 12.96484375 87.1396484375 -373.41015625 -56.185546875 -34.8896484375 c 0
 -199.510742188 303.629882812 124.60546875 368.0703125 306.904296875 313.185546875 c 0
 433.849609375 274.96484375 536.224609375 264.044921875 654.979492188 315.915039062 c 9
  Spiro
    654.98 315.915 v
    606.236 297.289 o
    478.89 274.046 o
    302.81 295.44 o
    101.691 304.685 o
    -48.3357 201.444 o
    -38.44 -29.43 o
    99.0825 -135.921 o
    239.147 55.8869 o
    347.855 410.1 o
    374.908 520.525 o
    434.884 590.838 o
    577.175 617.58 o
    655.715 551.076 o
    541.089 453.66 o
    311 492 o
    116.329 552.575 o
    91.0153 457.921 o
    110.345 386.895 v
    87.5368 463.201 o
    107.537 566.495 o
    302.81 507.015 o
    509.942 473.163 o
    633.767 551.116 o
    577.175 603.93 o
    443.489 571.479 o
    392.418 498.486 o
    372.425 406.005 o
    253.369 42.0966 o
    98.5115 -158.444 o
    -56.185 -34.89 o
    -66.3621 217.829 o
    100.108 322.605 o
    306.905 313.185 o
    427.062 285.396 o
    540.281 283.675 o
    0 0 z
  EndSpiro
EndSplineSet
EndChar

StartChar: g
Encoding: 103 103 6
Width: 618
Flags: HW
LayerCount: 2
Fore
SplineSet
105 317 m 5
 141.869140625 143.141601562 l 5
 310.869140625 88.1416015625 l 5
 443 207 l 5
 406.131835938 380.858398438 l 5
 237.131835938 435.858398438 l 5
 105 317 l 5
96 25 m 5
 96 25 355.5 -67 357.5 -67 c 4
 359.5 -67 484 39 484 39 c 5
 467.072265625 111.658203125 l 5
 347.5078125 4.130859375 l 5
 89.5078125 88.130859375 l 5
 33.25390625 353.565429688 l 5
 235 535 l 5
 493 451 l 5
 549.25390625 185.565429688 l 5
 550 186 579 43 579 43 c 5
 357.5 -136 l 5
 78 -22 l 5
 96 25 l 5
EndSplineSet
EndChar

StartChar: h
Encoding: 104 104 7
Width: 654
Flags: HW
HStem: 5.00488 49.9902<64.552 138.005 187.995 261.448 416.552 490.005 539.995 613.448> 311.005 49.9902<187.995 490.005> 591.005 49.9902<39.552 138.005>
VStem: 138.005 49.9902<54.9951 311.005 360.995 591.005> 490.005 49.9902<54.9951 311.005>
LayerCount: 2
Fore
SplineSet
187.995117188 360.995117188 m 1
 515 360.995117188 l 2
 521.399414062 360.995117188 527.799804688 358.555664062 532.677734375 353.677734375 c 0
 537.555664062 348.799804688 539.995117188 342.399414062 539.995117188 336 c 2
 539.995117188 54.9951171875 l 1
 596 54.9951171875 l 2
 602.399414062 54.9951171875 608.799804688 52.5556640625 613.677734375 47.677734375 c 0
 618.555664062 42.7998046875 620.995117188 36.3994140625 620.995117188 30 c 0
 620.995117188 23.6005859375 618.555664062 17.2001953125 613.677734375 12.322265625 c 0
 608.799804688 7.4443359375 602.399414062 5.0048828125 596 5.0048828125 c 2
 515 5.0048828125 l 1
 434 5.0048828125 l 2
 427.600585938 5.0048828125 421.200195312 7.4443359375 416.322265625 12.322265625 c 0
 411.444335938 17.2001953125 409.004882812 23.6005859375 409.004882812 30 c 0
 409.004882812 36.3994140625 411.444335938 42.7998046875 416.322265625 47.677734375 c 0
 421.200195312 52.5556640625 427.600585938 54.9951171875 434 54.9951171875 c 2
 490.004882812 54.9951171875 l 1
 490.004882812 311.004882812 l 1
 187.995117188 311.004882812 l 1
 187.995117188 54.9951171875 l 1
 244 54.9951171875 l 2
 250.399414062 54.9951171875 256.799804688 52.5556640625 261.677734375 47.677734375 c 0
 266.555664062 42.7998046875 268.995117188 36.3994140625 268.995117188 30 c 0
 268.995117188 23.6005859375 266.555664062 17.2001953125 261.677734375 12.322265625 c 0
 256.799804688 7.4443359375 250.399414062 5.0048828125 244 5.0048828125 c 2
 163 5.0048828125 l 1
 82 5.0048828125 l 2
 75.6005859375 5.0048828125 69.2001953125 7.4443359375 64.322265625 12.322265625 c 0
 59.4443359375 17.2001953125 57.0048828125 23.6005859375 57.0048828125 30 c 0
 57.0048828125 36.3994140625 59.4443359375 42.7998046875 64.322265625 47.677734375 c 0
 69.2001953125 52.5556640625 75.6005859375 54.9951171875 82 54.9951171875 c 2
 138.004882812 54.9951171875 l 1
 138.004882812 591.004882812 l 1
 57 591.004882812 l 2
 50.6005859375 591.004882812 44.2001953125 593.444335938 39.322265625 598.322265625 c 0
 34.4443359375 603.200195312 32.0048828125 609.600585938 32.0048828125 616 c 0
 32.0048828125 622.399414062 34.4443359375 628.799804688 39.322265625 633.677734375 c 0
 44.2001953125 638.555664062 50.6005859375 640.995117188 57 640.995117188 c 2
 163 640.995117188 l 2
 169.399414062 640.995117188 175.799804688 638.555664062 180.677734375 633.677734375 c 0
 185.555664062 628.799804688 187.995117188 622.399414062 187.995117188 616 c 2
 187.995117188 360.995117188 l 1
EndSplineSet
EndChar

StartChar: i
Encoding: 105 105 8
Width: 366
Flags: HW
HStem: 527 140<121.206 222.794>
VStem: 105 140<28.1732 63 449 485.292 549.799 644.201>
LayerCount: 2
Fore
SplineSet
286 501 m 1
 64 501 l 25
 64 501 105 474 105 449 c 27
 105 298 105 215 105 63 c 0
 105 20.2451171875 18 -1 18 -1 c 0
 343 -1 l 0
 343 -1 245 14.7294921875 245 63 c 0
 245 213 245 298 245 449 c 27
 245 474 286 501 286 501 c 1
102 597 m 0
 102 636 133 667 172 667 c 0
 211 667 242 636 242 597 c 0
 242 558 211 527 172 527 c 0
 133 527 102 558 102 597 c 0
EndSplineSet
EndChar

StartChar: j
Encoding: 106 106 9
Width: 648
Flags: HW
HStem: 7 64<131.7 362.463> 523 120<516.745 609.255>
VStem: 503 120<536.745 629.255>
LayerCount: 2
Fore
SplineSet
503 583 m 0
 503 616 530 643 563 643 c 0
 596 643 623 616 623 583 c 0
 623 550 596 523 563 523 c 0
 530 523 503 550 503 583 c 0
173 482 m 25
 159 417 l 25
 535 419 l 25
 535 419 559 71 249 71 c 0
 -61 71 149 325 149 325 c 25
 71 325 l 25
 71 325 -137 7 251 7 c 0
 639 7 611 482 611 482 c 25
 173 482 l 25
EndSplineSet
EndChar

StartChar: k
Encoding: 107 107 10
Width: 480
Flags: HW
HStem: 3 84<24 108 367 451> 88 84<24 108 281 365> 173 84<24 108 195 279> 258 84<24 108 109 194> 343 84<24 108 195 280> 428 84<24 108 281 365> 513 84<24 108>
VStem: 24 84<3 87 88 172 173 257 258 342 343 427 428 512 513 597> 109 85<258 342> 195 84<173 257 343 427> 281 84<88 172 428 512> 367 84<3 87>
LayerCount: 2
Fore
SplineSet
367 87 m 1
 451 87 l 1
 451 3 l 1
 367 3 l 1
 367 87 l 1
281 172 m 1
 365 172 l 1
 365 88 l 1
 281 88 l 1
 281 172 l 1
195 257 m 1
 279 257 l 1
 279 173 l 1
 195 173 l 1
 195 257 l 1
195 427 m 1
 280 427 l 1
 280 343 l 1
 195 343 l 1
 195 427 l 1
109 342 m 1
 194 342 l 1
 194 258 l 1
 109 258 l 1
 109 342 l 1
281 512 m 1
 365 512 l 1
 365 428 l 1
 281 428 l 1
 281 512 l 1
24 87 m 1
 108 87 l 1
 108 3 l 1
 24 3 l 1
 24 87 l 1
24 172 m 1
 108 172 l 1
 108 88 l 1
 24 88 l 1
 24 172 l 1
24 257 m 1
 108 257 l 1
 108 173 l 1
 24 173 l 1
 24 257 l 1
24 342 m 1
 108 342 l 1
 108 258 l 1
 24 258 l 1
 24 342 l 1
24 427 m 1
 108 427 l 1
 108 343 l 1
 24 343 l 1
 24 427 l 1
24 512 m 1
 108 512 l 1
 108 428 l 1
 24 428 l 1
 24 512 l 1
24 597 m 1
 108 597 l 1
 108 513 l 1
 24 513 l 1
 24 597 l 1
EndSplineSet
EndChar

StartChar: l
Encoding: 108 108 11
Width: 559
Flags: HW
HStem: 30 180<207 531> 572 20G<25 207> 572 20G<25 207>
VStem: 25 182<210 592>
LayerCount: 2
Fore
SplineSet
25 562 m 1xd0
 207 562 l 1
 207 180 l 1
 531 180 l 1
 531 0 l 1
 99 0 l 1
 25 74 l 1
 25 562 l 1xd0
EndSplineSet
EndChar

StartChar: m
Encoding: 109 109 12
Width: 432
Flags: HW
HStem: 1 21G<28.005 77.995 189.005 238.995 349.005 398.995> 590.005 49.9902<95.523 174.36 253.704 336.561>
VStem: 28.005 49.9902<1 576.275 624.371 664> 189.005 49.9902<1 532> 349.005 49.9902<1 538>
LayerCount: 2
Fore
SplineSet
214.098632812 603.940429688 m 1
 230.817382812 624.887695312 257.26953125 639.995117188 294 639.995117188 c 0
 327.107421875 639.995117188 352.25 628.456054688 368.874023438 611.83203125 c 0
 387.487304688 593.217773438 398.995117188 563.350585938 398.995117188 538 c 2
 398.995117188 1 l 1
 349.004882812 1 l 1
 349.004882812 538 l 1
 349.004882812 538 348.565429688 561.428710938 333.518554688 576.4765625 c 0
 326.451171875 583.543945312 315.59375 590.004882812 294 590.004882812 c 0
 274.337890625 590.004882812 263.96875 583.963867188 256.71484375 576.708984375 c 0
 240.502929688 560.497070312 239.051757812 532.947265625 238.995117188 531.737304688 c 2
 238.995117188 1 l 1
 189.004882812 1 l 1
 189.004882812 532 l 1
 189.004882812 532 188.247070312 559.88671875 171.734375 576.3984375 c 0
 164.407226562 583.7265625 153.658203125 590.004882812 133 590.004882812 c 0
 115.748046875 590.004882812 106.059570312 584.512695312 98.6552734375 577.109375 c 0
 81.095703125 559.548828125 78.2109375 527.10546875 77.9951171875 524.348632812 c 2
 77.9951171875 1 l 1
 28.0048828125 1 l 1
 28.0048828125 664 l 1
 77.9951171875 664 l 1
 77.9951171875 624.37109375 l 1
 92.6396484375 633.90625 111.126953125 639.995117188 133 639.995117188 c 0
 170.33203125 639.995117188 197.150390625 625.025390625 214.098632812 603.940429688 c 1
EndSplineSet
EndChar

StartChar: n
Encoding: 110 110 13
Width: 645
Flags: HW
HStem: -0.0244141 21G<152.001 202>
VStem: 152.001 50.4805<-0.00683594 179.009 183.939 450.198> 558.251 48<36.0125 199.207>
LayerCount: 2
Fore
SplineSet
359 680.5 m 0
 378.380859375 680.5 390.374023438 679.221679688 398.212890625 678.072265625 c 0
 414.783203125 675.640625 427.399414062 671.423828125 439.935546875 665.03125 c 0
 453.83984375 657.94140625 466.466796875 648.390625 478.104492188 636.7265625 c 0
 499.041992188 615.741210938 516.708984375 587.91796875 531.66015625 555.59375 c 0
 558.569335938 497.416015625 576.657226562 424.659179688 588.80078125 351.146484375 c 0
 610.659179688 218.826171875 606.250976562 43.05859375 606.250976562 -13.4365234375 c 0
 606.250976562 -31.005859375 606 -41.0068359375 606 -41.0068359375 c 2
 551 36 l 1
 551 36 557 53 558.250976562 104.556640625 c 0
 560.993164062 217.5546875 552.604492188 566.5546875 399.119140625 659.46875 c 1
 360.078125 675.069335938 l 1
 352.203125 673.709960938 340.758789062 670.342773438 331.259765625 665.692382812 c 0
 322.5625 661.434570312 314.286132812 655.997070312 306.521484375 649.534179688 c 0
 292.536132812 637.893554688 280.181640625 622.926757812 269.329101562 605.361328125 c 0
 217.807617188 521.96875 199.780273438 378.21484375 195.581054688 250.916015625 c 1
 201.356445312 168.931640625 202.481445312 94.1611328125 202.481445312 47.9736328125 c 0
 202.481445312 17.9462890625 202 -0.0048828125 202 -0.0068359375 c 2
 152.000976562 -0.0244140625 l 2
 152.000976562 -0.0185546875 144.50390625 79.4033203125 144.50390625 183.888671875 c 0
 144.50390625 184.28515625 147.166015625 227.779296875 145.565429688 250.47265625 c 0
 134.838867188 402.643554688 144 567 19 660 c 1
 98 618 l 1
 133.181640625 582.818359375 152.040039062 542.428710938 168.353515625 463.717773438 c 1
 179.631835938 517.885742188 196.135742188 567.977539062 219.42578125 605.673828125 c 0
 231.676757812 625.50390625 245.833007812 642.065429688 262.279296875 654.405273438 c 0
 276.5625 665.123046875 291.684570312 672.583007812 311.989257812 676.696289062 c 0
 321.102539062 678.54296875 332.473632812 680.5 359 680.5 c 0
EndSplineSet
EndChar

StartChar: o
Encoding: 111 111 14
Width: 693
Flags: HW
HStem: 6 120<259.325 433.475> 507.6 134.4<259.325 433.475>
VStem: 28 128<229.569 403.679> 537.6 126.4<229.569 403.679>
LayerCount: 2
Fore
SplineSet
156 316.799804688 m 0
 156 211.200195312 241.200195312 126 346.799804688 126 c 0
 452.400390625 126 537.599609375 211.200195312 537.599609375 316.799804688 c 0
 537.599609375 422.400390625 452.400390625 507.599609375 346.799804688 507.599609375 c 0
 241.200195312 507.599609375 156 422.400390625 156 316.799804688 c 0
28 324 m 0
 28 500 170 642 346 642 c 0
 522 642 664 500 664 324 c 0
 664 148 522 6 346 6 c 0
 170 6 28 148 28 324 c 0
EndSplineSet
EndChar

StartChar: p
Encoding: 112 112 15
Width: 526
Flags: HW
HStem: 6 21G<36 122>
VStem: 36 86<6 244 392 612> 404 77<392 560>
LayerCount: 2
Fore
SplineSet
36 -224 m 29
 36 80 l 29
 404 162 l 29
 404 330 l 29
 122 382 l 29
 122 162 l 29
 36 146 l 29
 36 474 l 29
 481 388 l 29
 481 94 l 29
 122 14 l 29
 122 -224 l 29
 36 -224 l 29
EndSplineSet
EndChar

StartChar: q
Encoding: 113 113 16
Width: 560
Flags: HW
HStem: 7.91992 49.21<471.39 536.56> 249.98 61.1797<155.879 303.441> 593.12 61.1797<155.879 303.441>
VStem: 23.18 65.1699<378.375 525.905> 370.31 101.08<378.766 525.514> 408.88 62.5098<57.1299 367.224 537.056 655.63>
LayerCount: 2
Fore
SplineSet
23.1796875 202.139648438 m 0xf4
 23.1796875 313.860351562 113.620117188 404.299804688 225.33984375 404.299804688 c 0
 306.724609375 404.299804688 376.815429688 356.306640625 408.879882812 287.055664062 c 1
 408.879882812 405.629882812 l 1
 471.389648438 405.629882812 l 1
 471.389648438 -192.870117188 l 1
 536.559570312 -192.870117188 l 1
 536.559570312 -242.080078125 l 1
 462.080078125 -242.080078125 l 1
 424.83984375 -242.080078125 l 1
 408.879882812 -242.080078125 l 1
 408.879882812 117.223632812 l 1
 376.815429688 47.97265625 306.724609375 -0.01953125 225.33984375 -0.01953125 c 0
 113.620117188 -0.01953125 23.1796875 90.419921875 23.1796875 202.139648438 c 0xf4
88.349609375 202.139648438 m 0
 88.349609375 123.669921875 150.860351562 61.16015625 229.330078125 61.16015625 c 0
 307.799804688 61.16015625 370.309570312 123.669921875 370.309570312 202.139648438 c 0xf8
 370.309570312 280.610351562 307.799804688 343.120117188 229.330078125 343.120117188 c 0
 150.860351562 343.120117188 88.349609375 280.610351562 88.349609375 202.139648438 c 0
EndSplineSet
EndChar

StartChar: s
Encoding: 115 115 17
Width: 668
Flags: HW
HStem: 5.95117 89.9434<46 505.633> 279.215 89.9248<139.504 508.441> 508.045 89.9551<138.601 627>
VStem: 31.009 89.9824<388.252 486.778> 542.009 89.9824<130 246.999>
LayerCount: 2
Fore
SplineSet
425.666015625 279.21484375 m 0
 419.94921875 279.21484375 421.3671875 279.008789062 418 279.008789062 c 2
 202.48046875 279.008789062 l 2
 197.4765625 279.008789062 176.418945312 279.387695312 149.526367188 286.778320312 c 0
 126.478515625 293.111328125 97.943359375 304.798828125 73.525390625 329.215820312 c 0
 48.26953125 354.47265625 31.0087890625 391.997070312 31.0087890625 439 c 0
 31.0087890625 485.741210938 48.0888671875 523.116210938 73.25390625 548.28125 c 0
 97.767578125 572.794921875 126.479492188 584.372070312 149.6328125 590.578125 c 0
 175.362304688 597.474609375 195.7734375 598 202.00390625 598 c 0
 202.5625 598 203.006835938 597.995117188 203.331054688 597.991210938 c 2
 627 597.991210938 l 1
 627 508.008789062 l 1
 203 508.008789062 l 2
 202.028320312 508.008789062 202.4609375 508.044921875 200.892578125 508.044921875 c 0
 197.458007812 508.044921875 187.786132812 507.625976562 173.041992188 503.674804688 c 0
 159.381835938 500.012695312 145.704101562 493.453125 136.893554688 484.641601562 c 0
 128.346679688 476.094726562 120.991210938 464.215820312 120.991210938 439 c 0
 120.991210938 413.659179688 128.428710938 401.592773438 137.165039062 392.85546875 c 0
 146.08984375 383.931640625 159.838867188 377.282226562 173.482421875 373.533203125 c 0
 188.452148438 369.419921875 201.922851562 369.002929688 203 368.991210938 c 2
 416.912109375 368.991210938 l 2
 418.415039062 369.055664062 421.016601562 369.139648438 424.546875 369.139648438 c 0
 436.580078125 369.139648438 459.41015625 368.161132812 486.362304688 362.08203125 c 0
 516.748046875 355.228515625 554.16015625 341.715820312 584.840820312 311.034179688 c 0
 613.154296875 282.721679688 631.991210938 241.174804688 631.991210938 189 c 0
 631.991210938 136.166992188 612.700195312 94.21484375 584.111328125 65.6259765625 c 0
 553.63671875 35.1513671875 516.668945312 21.2548828125 486.537109375 13.9912109375 c 0
 456.810546875 6.826171875 432.1484375 5.951171875 421.654296875 5.951171875 c 0
 419.66015625 5.951171875 418.177734375 5.982421875 417.26953125 6.0087890625 c 2
 46 6.0087890625 l 1
 46 95.9912109375 l 1
 418 95.9912109375 l 2
 420.201171875 95.9912109375 419.25390625 95.89453125 422.88671875 95.89453125 c 0
 429.329101562 95.89453125 444.815429688 96.5107421875 465.338867188 101.458007812 c 0
 486.013671875 106.44140625 506.983398438 115.77734375 520.471679688 129.265625 c 0
 532.579101562 141.374023438 542.008789062 157.881835938 542.008789062 189 c 0
 542.008789062 219.768554688 532.810546875 235.786132812 521.202148438 247.39453125 c 0
 508.018554688 260.578125 487.21484375 269.631835938 466.454101562 274.314453125 c 0
 447.688476562 278.546875 433.041992188 279.21484375 425.666015625 279.21484375 c 0
EndSplineSet
EndChar

StartChar: r
Encoding: 114 114 18
Width: 618
Flags: HW
HStem: 560 20G<47.6 215.18 575.047 579.32>
LayerCount: 2
Fore
SplineSet
35 580 m 1
 215.1796875 573.700195312 l 1
 201.3203125 508.1796875 l 1
 201.3203125 508.1796875 290.267578125 548.428710938 372.6796875 559.83984375 c 0
 454.580078125 571.1796875 579.3203125 561.100585938 579.3203125 561.100585938 c 1
 547.8203125 413.6796875 l 1
 547.8203125 413.6796875 487.33984375 503.139648438 387.799804688 510.700195312 c 0
 289 518.204101562 193.759765625 460.299804688 193.759765625 460.299804688 c 1
 193.759765625 460.299804688 161 283.900390625 188.719726562 170.5 c 0
 205.345703125 102.484375 274.400390625 3 274.400390625 3 c 1
 52.6396484375 3 l 1
 52.6396484375 3 103.9609375 83.359375 109.33984375 213.33984375 c 0
 116.900390625 396.040039062 113.120117188 465.33984375 113.120117188 465.33984375 c 1
 113.120117188 465.33984375 114.379882812 505.66015625 89.1796875 537.16015625 c 0
 75.6376953125 554.087890625 60.2001953125 571.1796875 35 580 c 1
EndSplineSet
EndChar

StartChar: t
Encoding: 116 116 19
Width: 454
Flags: HW
HStem: 9.00488 99.9902<217.896 420> 491.005 99.9902<35 90.005 189.995 332> 610.005 69.9902<35 90.005 189.995 246>
VStem: 90.005 99.9902<136.111 491.005 590.995 610.005 679.995 753>
LayerCount: 2
Fore
SplineSet
189.995117188 191 m 2
 189.995117188 190.416992188 189.979492188 190.447265625 189.979492188 189.73046875 c 0
 189.979492188 185.368164062 190.840820312 156.551757812 212.936523438 134.456054688 c 0
 226.10546875 121.287109375 248.206054688 108.995117188 290 108.995117188 c 2
 420 108.995117188 l 1
 420 9.0048828125 l 1
 290 9.0048828125 l 2
 237.6328125 9.0048828125 171.018554688 35.6640625 147.581054688 59.1005859375 c 0
 112.076171875 94.60546875 89.978515625 178.836914062 89.978515625 189.423828125 c 0
 89.978515625 190.33203125 89.994140625 190.993164062 90.0048828125 191.379882812 c 2
 90.0048828125 491.004882812 l 1
 35 491.004882812 l 1
 35 590.995117188 l 1
 90.0048828125 590.995117188 l 1
 90.0048828125 610.004882812 l 1
 35 610.004882812 l 1
 35 679.995117188 l 1
 90.0048828125 679.995117188 l 1
 90.0048828125 753 l 1
 189.995117188 753 l 1
 189.995117188 679.995117188 l 1
 246 679.995117188 l 1
 246 610.004882812 l 1
 189.995117188 610.004882812 l 1
 189.995117188 590.995117188 l 1
 332 590.995117188 l 1
 332 491.004882812 l 1
 189.995117188 491.004882812 l 1
 189.995117188 191 l 2
EndSplineSet
EndChar

StartChar: u
Encoding: 117 117 20
Width: 561
Flags: HW
HStem: 7.14258 55.6143<104.181 404.307> 536.707 20G<56.44 63.56 489.203 496.322>
VStem: 32.193 55.6133<85.1953 548.311> 464.955 55.6143<97.2286 548.311>
LayerCount: 2
Fore
SplineSet
32.193359375 528.900390625 m 2
 32.193359375 536.01953125 34.9072265625 543.139648438 40.333984375 548.56640625 c 0
 45.759765625 553.993164062 52.880859375 556.70703125 60 556.70703125 c 0
 67.119140625 556.70703125 74.240234375 553.993164062 79.666015625 548.56640625 c 0
 85.0927734375 543.139648438 87.806640625 536.01953125 87.806640625 528.900390625 c 2
 87.806640625 85.1953125 l 1
 104.180664062 62.7568359375 l 1
 393.014648438 62.7568359375 l 2
 400.493164062 65.2255859375 420.044921875 72.943359375 437.866210938 90.7646484375 c 0
 452.71484375 105.61328125 464.955078125 126.202148438 464.955078125 158.4375 c 2
 464.955078125 528.900390625 l 2
 464.955078125 536.01953125 467.668945312 543.139648438 473.095703125 548.56640625 c 0
 478.522460938 553.993164062 485.643554688 556.70703125 492.762695312 556.70703125 c 0
 499.881835938 556.70703125 507.001953125 553.993164062 512.428710938 548.56640625 c 0
 517.85546875 543.139648438 520.569335938 536.01953125 520.569335938 528.900390625 c 2
 520.569335938 158.4375 l 2
 520.569335938 110.157226562 500.453125 74.685546875 477.19921875 51.4326171875 c 0
 444.172851562 18.40625 406.5703125 8.6953125 404.306640625 8.08984375 c 2
 397.087890625 7.142578125 l 1
 90.037109375 7.142578125 l 1
 67.5517578125 18.5751953125 l 1
 37.5146484375 59.73828125 l 1
 32.193359375 76.1123046875 l 1
 32.193359375 528.900390625 l 2
EndSplineSet
EndChar

StartChar: v
Encoding: 118 118 21
Width: 873
Flags: HW
HStem: 0 21G<409.755 436.245> 584 20G<23 235.346 610.654 823>
LayerCount: 2
Fore
SplineSet
23 604 m 25
 223 604 l 25
 423 280 l 8
 623 604 l 25
 823 604 l 25
 423 0 l 0
 23 604 l 25
EndSplineSet
EndChar

StartChar: w
Encoding: 119 119 22
Width: 833
Flags: HW
HStem: 14.0186 99.873<156.69 318.877 497.219 673.249> 588.99 20G<140.993 162.795 670.511 694.483>
VStem: 20.836 100.134<151.918 386.201> 105.36 93.6299<531.305 603.043> 345.493 118.199<192.122 382.101> 355.021 102.645<272.867 388.229> 710.332 100.139<153.283 390.371>
LayerCount: 2
Fore
SplineSet
189.501953125 527.186523438 m 1024xc2
198.990234375 559 m 1024xd2
198.990234375 559 m 1024
  Spiro
    198.99 559 {
    0 0 z
  EndSpiro
407.606445312 82.2373046875 m 1
 377.143554688 47.4326171875 325.104492188 14.0185546875 237.54296875 14.0185546875 c 0
 200.938476562 14.0185546875 131.814453125 18.3203125 80.8359375 69.298828125 c 0
 45.9970703125 104.137695312 20.8359375 158.985351562 20.8359375 244.8125 c 0xe6
 20.8359375 290.283203125 28.890625 384.076171875 80.1064453125 522.405273438 c 0
 80.3359375 523.024414062 98.076171875 570.583984375 105.360351562 583.4609375 c 0
 106.34765625 585.205078125 110 590 113.6328125 594.34765625 c 0
 120.810546875 602.938476562 132.986328125 608.990234375 149 608.990234375 c 0
 176.590820312 608.990234375 200 597 198.990234375 559 c 0xd2
 198.8046875 552.002929688 189.501953125 527.186523438 189.501953125 527.186523438 c 1
 182.043945312 509.654296875 120.969726562 362.486328125 120.969726562 244.375 c 0
 120.969726562 127.961914062 176.965820312 113.891601562 239.4765625 113.891601562 c 0
 308.865234375 113.891601562 339.317382812 143.223632812 353.953125 189.045898438 c 1
 349.569335938 208.471679688 345.493164062 235.807617188 345.493164062 270.479492188 c 0xea
 345.493164062 321.625 354.477539062 359.31640625 355.020507812 361.643554688 c 0xc6
 360.228515625 383.979492188 380.204101562 400.208007812 403.686523438 400.208007812 c 0
 426.900390625 400.208007812 446.721679688 384.334960938 452.181640625 362.330078125 c 0
 452.760742188 359.993164062 463.692382812 316.782226562 463.692382812 260.083984375 c 0xca
 463.692382812 244.385742188 462.873046875 218.524414062 457.665039062 190.825195312 c 1xc6
 474.265625 144.76953125 508.485351562 112.778320312 585.971679688 112.778320312 c 0
 648.500976562 112.778320312 710.33203125 125.211914062 710.33203125 246.338867188 c 0
 710.33203125 273.6640625 707.108398438 303.7265625 701.62109375 333.736328125 c 0
 682.232421875 439.765625 638.66015625 537.142578125 638.63671875 537.1953125 c 0
 635.8515625 543.420898438 634.302734375 550.319335938 634.302734375 557.576171875 c 0
 634.302734375 585.176757812 656.7109375 607.584960938 684.311523438 607.584960938 c 0
 704.655273438 607.584960938 722.177734375 595.411132812 729.935546875 578.037109375 c 0
 732.791992188 571.651367188 810.470703125 396.596679688 810.470703125 247.245117188 c 0
 810.470703125 180.118164062 795.053710938 115.125976562 749.517578125 69.58984375 c 0
 695.953125 16.025390625 622.625976562 12.8779296875 587.71875 12.8779296875 c 0
 528.44921875 12.8779296875 458.168945312 27.1767578125 407.606445312 82.2373046875 c 1
  Spiro
    407.606 82.2369 v
    369.481 49.1125 o
    313.715 23.9521 o
    237.543 14.019 o
    192.028 17.0146 o
    135.929 32.3345 o
    80.836 69.2993 o
    49.823 111.165 o
    28.635 168.972 o
    20.836 244.812 o
    24.812 306.173 o
    42.004 399.17 o
    80.107 522.405 o
    85.128 535.625 o
    95.638 562.073 o
    105.361 583.461 o
    105.932 585.045 o
    107.688 587.895 o
    113.632 594.347 o
    122.751 601.655 o
    134.486 606.957 o
    149 608.99 o
    174.201 602.174 o
    192.174 584.201 o
    198.99 559 ]
    189.502 527.187 v
    168.45 472.406 o
    137.052 366.175 o
    120.97 244.375 o
    137.771 158.865 o
    181.023 121.832 o
    239.476 113.891 o
    296.697 123.175 o
    333.217 149.229 o
    353.953 189.046 v
    349.815 211.062 o
    346.71 238.304 o
    345.493 270.48 o
    347.839 316.289 o
    352.313 348.363 o
    355.02 361.643 o
    364.72 381.552 o
    381.81 395.183 o
    403.687 400.208 o
    425.343 395.287 o
    442.354 381.913 o
    452.181 362.33 o
    455.418 347.409 o
    460.842 311.227 o
    463.692 260.084 o
    463.288 241.328 o
    461.54 217.578 o
    457.665 190.825 v
    481.057 150.157 o
    522.009 122.759 o
    585.972 112.778 o
    645.949 120.469 o
    692.02 157.937 o
    710.332 246.339 o
    709.295 274.444 o
    706.314 303.842 o
    701.621 333.737 o
    676.708 433.507 o
    650.646 508.04 o
    638.637 537.195 o
    636.277 543.627 o
    634.806 550.457 o
    634.302 557.576 o
    641.121 582.786 o
    659.101 600.766 o
    684.311 607.585 o
    703.44 603.793 o
    719.193 593.406 o
    729.935 578.037 o
    752.049 522.725 o
    790.261 397.821 o
    810.47 247.245 o
    804.799 181.535 o
    785.532 120.914 o
    749.518 69.5903 o
    691.581 31.1057 o
    633.224 15.6702 o
    587.719 12.8775 o
    525.98 18.6115 o
    463.543 39.8145 o
    0 0 z
  EndSpiro
EndSplineSet
EndChar

StartChar: x
Encoding: 120 120 23
Width: 736
Flags: HW
HStem: -0.236328 21G<165.263 205.263> 657.512 20G<136.969 176.969 557 597>
LayerCount: 2
Fore
SplineSet
692.955078125 141.524414062 m 1
 548.706054688 -2.724609375 l 1
 365.740234375 180.241210938 l 1
 185.262695312 -0.236328125 l 1
 41.013671875 144.012695312 l 1
 221.491210938 324.490234375 l 1
 12.71875 533.26171875 l 1
 156.96875 677.51171875 l 1
 365.740234375 468.740234375 l 1
 577 680 l 1
 721.25 535.75 l 1
 509.989257812 324.490234375 l 1
 692.955078125 141.524414062 l 1
EndSplineSet
EndChar

StartChar: y
Encoding: 121 121 24
Width: 691
Flags: HW
LayerCount: 2
Fore
SplineSet
469 383 m 5
 550 475 l 5
 550 475 535 269 597 165 c 4
 659 61 720 -113 577 -101 c 4
 434 -89 19 -97 19 -97 c 5
 53 -7 l 5
 53 -7 292.370117188 -73.1279296875 447 -35 c 4
 593 1 559 88 559 88 c 5
 552.580078125 109.04296875 l 5
 511.674804688 109.599609375 332.154296875 116.130859375 246 187 c 4
 184 238 156 353 155 357 c 6
 155 357 237 409 238 411 c 4
 239 413 242 309 305 254 c 4
 366.663085938 200.166992188 498.1171875 187.673828125 529.276367188 185.426757812 c 5
 469 383 l 5
EndSplineSet
EndChar

StartChar: z
Encoding: 122 122 25
Width: 681
Flags: HW
LayerCount: 2
Fore
SplineSet
20.83984375 530.637695312 m 25
 20.83984375 444.770507812 l 25
 475.0546875 444.770507812 l 25
 20.83984375 89.2626953125 l 25
 20.83984375 5 l 25
 650 5 l 25
 650 89.2626953125 l 25
 189.364257812 89.2626953125 l 25
 650 444.770507812 l 25
 650 530.637695312 l 25
 20.83984375 530.637695312 l 25
EndSplineSet
EndChar

StartChar: one
Encoding: 49 49 26
Width: 1000
Flags: HW
LayerCount: 2
Fore
SplineSet
536 724 m 1
 536 724 480 587 348 587 c 0
 216 587 445 587 445 587 c 25
 445 69 l 25
 445 69 445 0 278 0 c 0
 152 0 783 0 693 0 c 0
 538 0 536 69 536 69 c 25
 536 724 l 1
EndSplineSet
EndChar

StartChar: zero
Encoding: 48 48 27
Width: 1000
Flags: H
LayerCount: 2
Fore
SplineSet
396 379 m 0
 396 180 439 12 493 12 c 0
 547 12 590 180 590 379 c 0
 590 578 547 745 493 745 c 0
 439 745 396 578 396 379 c 0
316 379 m 0
 316 585 395 753 493 753 c 0
 591 753 670 585 670 379 c 0
 670 173 591 5 493 5 c 0
 395 5 316 173 316 379 c 0
EndSplineSet
EndChar

StartChar: three
Encoding: 51 51 28
Width: 1000
Flags: HW
LayerCount: 2
Fore
SplineSet
559.442382812 419.106445312 m 4
 555.491210938 419.106445312 556.543945312 419.01171875 554.01171875 419.01171875 c 6
 266.01171875 419.01171875 l 6
 232.903320312 419.01171875 206.0234375 445.891601562 206.0234375 479 c 4
 206.0234375 512.108398438 232.903320312 538.98828125 266.01171875 538.98828125 c 6
 553.086914062 538.98828125 l 6
 554.197265625 539.018554688 556.038085938 539.057617188 558.51953125 539.057617188 c 4
 570.032226562 539.057617188 595.341796875 538.219726562 625.49609375 531.829101562 c 4
 682.1640625 519.8203125 732.629882812 490.876953125 756.124023438 441.599609375 c 4
 765.159179688 422.6484375 770 400.784179688 770 378 c 4
 770 353.623046875 764.66015625 330.462890625 755.014648438 310.552734375 c 4
 747.254882812 294.53515625 736.9765625 280.883789062 725.556640625 269.508789062 c 5
 737.665039062 258.061523438 748.232421875 244.41796875 756.125 227.984375 c 4
 765.12890625 209.237304688 770 187.5625 770 165 c 4
 770 142.743164062 765.26171875 121.313476562 756.392578125 102.72265625 c 4
 749.3125 87.8828125 739.837890625 75.123046875 729.25 64.53515625 c 4
 700.359375 35.64453125 665.92578125 23.275390625 637.298828125 16.1357421875 c 4
 601.544921875 7.2177734375 570.025390625 6.5078125 559.393554688 6.2236328125 c 4
 556.005859375 5.888671875 554.8046875 5.859375 553.576171875 5.859375 c 4
 553.309570312 5.859375 553.041992188 5.8603515625 552.750976562 5.8603515625 c 4
 531.37890625 5.8603515625 505.73046875 5.5673828125 479.370117188 5.5673828125 c 4
 418.418945312 5.5673828125 265.801757812 6.01171875 265.801757812 6.01171875 c 6
 232.791015625 6.126953125 206.026367188 32.9619140625 206.026367188 66 c 4
 206.026367188 99.1083984375 232.90625 125.98828125 266.014648438 125.98828125 c 4
 266.248046875 125.98828125 394.794921875 125.545898438 479.963867188 125.545898438 c 4
 507.787109375 125.545898438 530.90625 125.592773438 543.254882812 125.71875 c 5
 541.32421875 124.6640625 l 5
 546.094726562 125.734375 550.591796875 126.169921875 553.704101562 126.169921875 c 4
 554.271484375 126.169921875 554.663085938 126.141601562 555.284179688 126.141601562 c 4
 564.244140625 126.141601562 586.310546875 127.092773438 608.11328125 132.53125 c 4
 625.474609375 136.861328125 639.216796875 144.208007812 644.397460938 149.387695312 c 4
 646.221679688 151.211914062 647.287109375 152.768554688 648.086914062 154.4453125 c 4
 649.067382812 156.501953125 650.0234375 159.15625 650.0234375 165 c 4
 650.0234375 170.916015625 649.045898438 173.70703125 647.954101562 175.98046875 c 4
 647.065429688 177.830078125 645.850585938 179.595703125 643.831054688 181.615234375 c 4
 634.657226562 190.7890625 616.5703125 197.306640625 600.134765625 200.935546875 c 4
 579.05078125 205.590820312 562.848632812 206.05078125 557.2734375 206.05078125 c 4
 556.028320312 206.05078125 555.095703125 206.01171875 553.982421875 206.01171875 c 4
 520.874023438 206.01171875 493.994140625 232.891601562 493.994140625 266 c 4
 493.994140625 299.3359375 520.639648438 325.5546875 554.099609375 325.998046875 c 4
 558.50390625 326.122070312 574.215820312 326.9609375 595.837890625 332.618164062 c 4
 615.087890625 337.654296875 632.884765625 346.541992188 640.953125 354.610351562 c 4
 643.752929688 357.41015625 645.642578125 360.079101562 647.018554688 362.918945312 c 4
 648.719726562 366.431640625 650.0234375 370.56640625 650.0234375 378 c 4
 650.0234375 384.384765625 648.958007812 387.487304688 647.805664062 389.904296875 c 4
 646.868164062 391.869140625 645.627929688 393.658203125 643.619140625 395.666992188 c 4
 634.586914062 404.700195312 616.780273438 411.017578125 600.478515625 414.471679688 c 4
 581.103515625 418.578125 565.95703125 419.106445312 559.442382812 419.106445312 c 4
EndSplineSet
EndChar

StartChar: four
Encoding: 52 52 29
Width: 1000
Flags: H
LayerCount: 2
Fore
SplineSet
282 201 m 1
 499 455 l 1
 499 201 l 1
 282 201 l 1
462 518 m 25
 202 201 l 1
 204 139 l 25
 499 139 l 25
 499 3 l 25
 565 3 l 25
 565 139 l 25
 683 139 l 25
 683 201 l 1
 565 201 l 25
 565 518 l 0
 462 518 l 25
EndSplineSet
EndChar

StartChar: five
Encoding: 53 53 30
Width: 1000
Flags: H
LayerCount: 2
Fore
SplineSet
600 466 m 5
 758.697265625 367.790039062 l 1
 754.875 156.29296875 l 1
 599 17 l 1
 166.090820312 15.0615234375 l 1
 176 169 l 1
 538.479492188 170.793945312 l 1
 601.154296875 226.80078125 l 1
 601.982421875 272.603515625 l 1
 504.736328125 320.987304688 l 1
 209.189453125 320.987304688 l 1
 235.693359375 666.934570312 l 1
 667.39453125 674.345703125 l 1
 717 521 l 1
 379.435546875 514.409179688 l 1
 376.489257812 475.95703125 l 1
 600 466 l 5
EndSplineSet
EndChar

StartChar: six
Encoding: 54 54 31
Width: 1000
Flags: H
LayerCount: 2
Fore
SplineSet
586 735 m 0
 585.56640625 734.83984375 423.340820312 674.870117188 300.900390625 552.428710938 c 0
 227.444335938 478.973632812 168.024414062 382.538085938 168.024414062 262.9375 c 0
 168.024414062 201.456054688 192.819335938 150.184570312 232.568359375 110.436523438 c 0
 299.46875 43.53515625 409.075195312 8.23046875 516.946289062 8.23046875 c 0
 680.153320312 8.23046875 839.946289062 89.61328125 839.946289062 262.9375 c 0
 839.946289062 330.760742188 817.154296875 382.694335938 780.018554688 419.830078125 c 0
 728.076171875 471.772460938 649.08203125 494.668945312 566.631835938 494.668945312 c 0
 457.083984375 494.668945312 341.434570312 454.25 275.01953125 387.8359375 c 0
 240.357421875 353.172851562 218.598632812 310.8203125 218.598632812 262.9375 c 0
 218.598632812 217.201171875 236.958007812 179.047851562 266.749023438 149.255859375 c 0
 321.358398438 94.646484375 414.715820312 66.85546875 507.579101562 66.85546875 c 0
 597.76171875 66.85546875 687.478515625 93.0654296875 740.7890625 146.375976562 c 0
 770.876953125 176.463867188 789.37109375 215.502929688 789.37109375 262.9375 c 0
 789.37109375 387.39453125 674.96484375 438.77734375 556.379882812 438.77734375 c 0
 462.30078125 438.77734375 363.579101562 406.876953125 310.009765625 353.30859375 c 0
 284.850585938 328.1484375 269.173828125 297.599609375 269.173828125 262.9375 c 0
 269.173828125 229.177734375 282.729492188 200.930664062 304.8671875 178.791992188 c 0
 348.258789062 135.401367188 425.006835938 113.958984375 502.028320312 113.958984375 c 0
 580.547851562 113.958984375 659.3515625 136.243164062 703.384765625 180.27734375 c 0
 725.329101562 202.220703125 738.795898438 229.998046875 738.795898438 262.9375 c 0
 738.795898438 296.068359375 726.55859375 322.859375 706.341796875 343.076171875 c 0
 670.73828125 378.6796875 610.928710938 394.578125 548.877929688 394.578125 c 0
 471.716796875 394.578125 391.090820312 369.993164062 349.23828125 328.139648438 c 0
 331.083984375 309.986328125 319.749023438 287.96484375 319.749023438 262.9375 c 0
 319.749023438 238.497070312 329.408203125 218.09375 345.272460938 202.229492188 c 0
 377.995117188 169.506835938 434.747070312 155.340820312 494.879882812 155.340820312 c 0
 560.680664062 155.340820312 628.6875 173.302734375 664.192382812 208.80859375 c 0
 679.010742188 223.625976562 688.220703125 241.887695312 688.220703125 262.9375 c 0
 688.220703125 283.8203125 680.256835938 301.094726562 667.049804688 314.301757812 c 0
 640.502929688 340.848632812 594.102539062 351.375976562 546.567382812 351.375976562 c 0
 484.916992188 351.375976562 419.947265625 333.940429688 388.55078125 302.54296875 c 0
 377.43359375 291.426757812 370.32421875 278.047851562 370.32421875 262.9375 c 0
 370.32421875 248.21484375 376.216796875 235.74609375 385.875 226.087890625 c 0
 408.188476562 203.7734375 449.426757812 195.293945312 491.379882812 195.293945312 c 0
 543.452148438 195.293945312 598.950195312 208.461914062 624.288085938 233.799804688 c 0
 632.360351562 241.872070312 637.646484375 251.72265625 637.646484375 262.9375 c 0
 637.646484375 274.095703125 633.16015625 283.630859375 625.856445312 290.934570312 c 0
 608.431640625 308.359375 576.168945312 314.424804688 543.209960938 314.424804688 c 0
 498.529296875 314.424804688 450.705078125 303.6484375 430.315429688 283.2578125 c 0
 424.782226562 277.725585938 420.899414062 270.865234375 420.899414062 262.9375 c 0
 420.899414062 256.161132812 423.814453125 250.2421875 428.274414062 245.783203125 c 0
 441.338867188 232.717773438 467.249023438 228.939453125 493.416015625 228.939453125 c 0
 528.291992188 228.939453125 566.528320312 235.473632812 581.260742188 250.20703125 c 0
 584.489257812 253.434570312 587.071289062 257.73828125 587.071289062 262.9375 c 0
 587.071289062 266.826171875 583.734375 270.161132812 579.84765625 270.161132812 c 0
 575.958984375 270.161132812 572.624023438 266.82421875 572.624023438 262.9375 c 0
 572.624023438 262.759765625 572.579101562 261.9609375 571.04296875 260.424804688 c 0
 562.612304688 251.993164062 527.197265625 243.390625 494.098632812 243.390625 c 0
 468.58984375 243.390625 446.076171875 248.416992188 438.4921875 256.000976562 c 0
 436.219726562 258.2734375 435.345703125 260.348632812 435.345703125 262.9375 c 0
 435.345703125 265.892578125 436.731445312 269.23828125 440.533203125 273.040039062 c 0
 455.41015625 287.916992188 500.357421875 299.973632812 542.709960938 299.973632812 c 0
 574.483398438 299.973632812 603.12890625 293.227539062 615.638671875 280.716796875 c 0
 620.611328125 275.745117188 623.19921875 270.120117188 623.19921875 262.9375 c 0
 623.19921875 256.499023438 620.293945312 250.241210938 614.0703125 244.017578125 c 0
 593.790039062 223.737304688 541.5 209.741210938 491.342773438 209.741210938 c 0
 450.934570312 209.741210938 413.532226562 218.866210938 396.092773438 236.305664062 c 0
 388.755859375 243.642578125 384.771484375 252.21484375 384.771484375 262.9375 c 0
 384.771484375 273.262695312 389.505859375 283.0625 398.768554688 292.325195312 c 0
 425.440429688 318.997070312 487.240234375 336.928710938 546.440429688 336.928710938 c 0
 592.258789062 336.928710938 634.80078125 326.115234375 656.833007812 304.083984375 c 0
 667.594726562 293.322265625 673.774414062 279.99609375 673.774414062 262.9375 c 0
 673.774414062 246.333984375 666.734375 231.78515625 653.975585938 219.026367188 c 0
 622.860351562 187.912109375 558.133789062 169.79296875 494.517578125 169.79296875 c 0
 437.091796875 169.79296875 383.670898438 184.265625 355.490234375 212.447265625 c 0
 341.965820312 225.970703125 334.196289062 242.489257812 334.196289062 262.9375 c 0
 334.196289062 283.349609375 343.271484375 301.737304688 359.456054688 317.921875 c 0
 398.391601562 356.858398438 475.657226562 379.452148438 549.04296875 379.452148438 c 0
 607.760742188 379.452148438 663.994140625 364.98828125 696.124023438 332.858398438 c 0
 713.813476562 315.168945312 724.348632812 292.349609375 724.348632812 262.9375 c 0
 724.348632812 234.155273438 712.864257812 210.192382812 693.166992188 190.494140625 c 0
 652.356445312 149.684570312 577.03125 129.047851562 502.017578125 129.047851562 c 0
 428.4609375 129.047851562 355.205078125 148.890625 315.084960938 189.009765625 c 0
 295.243164062 208.852539062 283.62109375 233.255859375 283.62109375 262.9375 c 0
 283.62109375 292.986328125 297.05078125 319.913085938 320.227539062 343.090820312 c 0
 371.013671875 393.875976562 466.282226562 423.733398438 556.465820312 423.733398438 c 0
 668.008789062 423.733398438 774.923828125 378.889648438 774.923828125 262.9375 c 0
 774.923828125 219.463867188 758.276367188 184.298828125 730.571289062 156.59375 c 0
 680.479492188 106.501953125 594.283203125 81.8466796875 507.583007812 81.8466796875 c 0
 418.275390625 81.8466796875 328.43359375 108.006835938 276.966796875 159.473632812 c 0
 249.479492188 186.9609375 233.045898438 221.286132812 233.045898438 262.9375 c 0
 233.045898438 306.189453125 252.567382812 344.947265625 285.237304688 377.618164062 c 0
 349.065429688 441.4453125 461.139648438 479.72265625 566.61328125 479.72265625 c 0
 645.798828125 479.72265625 721.264648438 458.1484375 769.80078125 409.612304688 c 0
 804.133789062 375.278320312 825.499023438 327.407226562 825.499023438 262.9375 c 0
 825.499023438 97.93359375 672.875 23.1123046875 516.91796875 23.1123046875 c 0
 412.749023438 23.1123046875 306.717773438 56.7216796875 242.786132812 120.653320312 c 0
 205.346679688 158.09375 182.470703125 205.5625 182.470703125 262.9375 c 0
 182.470703125 377.426757812 239.283203125 470.376953125 311.1171875 542.2109375 c 0
 431.049804688 662.143554688 591.03515625 721.454101562 591.03515625 721.454101562 c 2
 593.640625 722.419921875 595.741210938 725.173828125 595.741210938 728.227539062 c 0
 595.741210938 732.116210938 592.404296875 735.451171875 588.517578125 735.451171875 c 0
 587.6640625 735.451171875 586.810546875 735.30078125 586 735 c 0
EndSplineSet
EndChar

StartChar: A
Encoding: 65 65 32
Width: 588
Flags: W
HStem: 431.513 81.1045<176.379 354.333>
VStem: 31.525 66.2539<159.166 345.939>
LayerCount: 2
Fore
SplineSet
97.779296875 246.458984375 m 0
 97.779296875 168.780273438 146.84375 76.8603515625 263.415039062 79.6806640625 c 0
 405.0625 83.107421875 426.765625 169.923828125 426.765625 169.923828125 c 0
 421.053710938 228.180664062 424.48046875 261.30859375 429.05078125 324.135742188 c 1
 429.05078125 324.135742188 395.922851562 431.512695312 267.984375 431.512695312 c 0
 129.764648438 431.512695312 97.779296875 328.704101562 97.779296875 246.458984375 c 0
  Spiro
    97.78 246.459 o
    114.783 168.145 o
    168.737 104.356 o
    263.415 79.6804 o
    368.647 104.56 o
    415.918 147.328 o
    426.766 169.923 o
    423.804 221.787 o
    425.161 269.227 o
    429.05 324.136 v
    415.752 351.926 o
    366.532 403.722 o
    267.985 431.512 o
    162.502 401.867 o
    111.162 330.907 o
    0 0 z
  EndSpiro
273.696289062 512.6171875 m 0
 410.7734375 512.6171875 443.900390625 407.524414062 443.900390625 407.524414062 c 1
 443.900390625 407.524414062 461.893554688 491.928710938 466.74609375 583.440429688 c 0
 474.743164062 734.225585938 121.767578125 754.787109375 121.767578125 642.83984375 c 0
 121.767578125 589.15234375 202.873046875 672.541015625 202.873046875 592.579101562 c 16
 202.873046875 512.6171875 51.4951171875 516.182617188 46.3759765625 606.287109375 c 0
 40.6640625 706.810546875 125.1953125 779.91796875 296.541992188 779.91796875 c 0
 467.889648438 779.91796875 577.55078125 706.810546875 546.708007812 524.040039062 c 0
 521.3828125 373.959960938 500.739257812 271.293945312 512.439453125 145.934570312 c 0
 520.435546875 60.2607421875 585.546875 10 533 10 c 0
 462.158203125 10 440.50390625 97.751953125 440.473632812 97.9580078125 c 1
 381.073242188 -10.5615234375 40.6279296875 -61.818359375 31.525390625 219.04296875 c 0
 23.529296875 465.782226562 164.033203125 512.6171875 273.696289062 512.6171875 c 0
  Spiro
    273.696 512.617 o
    378.671 485.418 o
    430.265 434.724 o
    443.9 407.524 v
    448.736 432.748 o
    458.677 497.239 o
    466.746 583.441 o
    381.015 690.669 o
    212.828 710.679 o
    121.768 642.84 o
    142.759 623.713 o
    181.882 629.213 o
    202.873 592.579 o
    163.505 540.595 o
    89.155 544.95 o
    46.376 606.287 o
    70.564 695.902 o
    154.374 757.285 o
    296.542 779.918 o
    444.287 754.247 o
    533.689 671.496 o
    546.708 524.04 o
    523.987 387.294 o
    510.489 266.208 o
    512.439 145.934 o
    532.974 72.6753 o
    552.807 26.1716 o
    533 9.99966 o
    477.574 32.7189 o
    448.715 75.1015 o
    440.473 97.9579 v
    310.251 18.7456 o
    128.233 38.7978 o
    31.526 219.043 o
    66.316 404.686 o
    160.506 491.384 o
    0 0 z
  EndSpiro
EndSplineSet
EndChar

StartChar: B
Encoding: 66 66 33
Width: 725
Flags: HW
LayerCount: 2
Fore
SplineSet
138 68 m 1
 131.513671875 68.73828125 452 404 530 286 c 0
 709.170898438 14.947265625 141.213867188 52.1923828125 138 68 c 1
36 632 m 9
 36 632 210 516 166 304 c 0
 122 92 86.9521484375 34.5498046875 42 24 c 0
 -10.4609375 11.6884765625 839.556640625 -65.71484375 654 278 c 0
 469.059570312 620.57421875 176 238 162 202 c 8
 148 166 324 504 280 614 c 0
 236 724 140 584 36 632 c 9
EndSplineSet
EndChar

StartChar: C
Encoding: 67 67 34
Width: 624
Flags: W
HStem: 6 136<198 472>
LayerCount: 2
Fore
SplineSet
43 545 m 1
 43 132 l 1
 43 132 162 6 164 6 c 0
 166 6 574 8 574 8 c 1
 472 142 l 1
 198 142 l 1
 199 538 l 1
 471 538 l 1
 588 682 l 1
 171 684 l 1
 43 545 l 1
EndSplineSet
EndChar

StartChar: D
Encoding: 68 68 35
Width: 542
Flags: W
HStem: 7.51953 49.25<183.302 351.568> 423.9 44.7715<183.302 352.716>
VStem: 35.739 49.249<155.082 323.348> 452.119 44.7725<156.721 323.948 376.143 770.356>
LayerCount: 2
Fore
SplineSet
84.98828125 240.334960938 m 0
 84.98828125 138.8515625 167.0703125 56.76953125 268.5546875 56.76953125 c 0
 370.037109375 56.76953125 452.119140625 138.8515625 452.119140625 240.334960938 c 0
 452.119140625 341.817382812 370.037109375 423.900390625 268.5546875 423.900390625 c 0
 167.0703125 423.900390625 84.98828125 341.817382812 84.98828125 240.334960938 c 0
35.7392578125 238.095703125 m 0
 35.7392578125 365.696289062 138.71484375 468.671875 266.315429688 468.671875 c 0
 342.087890625 468.671875 409.17578125 432.360351562 451.174804688 376.142578125 c 1
 451.174804688 471.310546875 452.119140625 667.169921875 452.119140625 735.07421875 c 0
 452.119140625 803 497.009765625 807 497.009765625 735.8203125 c 0
 497.009765625 647.022460938 496.891601562 417.69140625 496.891601562 238.095703125 c 0
 496.891601562 110.49609375 393.916015625 7.51953125 266.315429688 7.51953125 c 0
 138.71484375 7.51953125 35.7392578125 110.49609375 35.7392578125 238.095703125 c 0
EndSplineSet
EndChar

StartChar: E
Encoding: 69 69 36
Width: 671
Flags: W
HStem: 10 48<216.359 446.994> 264 20<129 570> 526 38<244.728 418.958>
LayerCount: 2
Fore
SplineSet
129 284 m 1
 570 284 l 25
 570 284 566 526 316 526 c 8
 66 526 21 58 309 58 c 0
 561 58 564 212 564 212 c 1
 630 213 l 25
 630 213 645 10 317 10 c 0
 -87 10 -50 564 312 564 c 0
 661 564 635 268 635 268 c 1
 127 264 l 1
 129 284 l 1
EndSplineSet
EndChar

StartChar: F
Encoding: 70 70 37
Width: 668
Flags: W
HStem: 1198.98 49.383<-8.79651e+10 -3.59742e+10>
LayerCount: 2
Fore
SplineSet
654.979492188 315.915039062 m 9
 654.979492188 315.915039062 493.91015625 235.379882812 302.809570312 295.440429688 c 0
 111.709960938 355.5 -164.020507812 270.870117188 -38.4404296875 -29.4296875 c 0
 87.1396484375 -329.729492188 265.517578125 18.998046875 347.854492188 410.100585938 c 0
 375.154296875 539.775390625 376.931640625 613.493164062 577.174804688 617.580078125 c 0
 777.830078125 621.674804688 573.520507812 330.560546875 311 492 c 0
 -10.162109375 689.5 110.344726562 386.895507812 110.344726562 386.895507812 c 1
 110.344726562 386.895507812 -24.4755859375 710.795898438 302.809570312 507.015625 c 0
 519.844726562 371.879882812 755.922851562 609.000976562 577.174804688 603.930664062 c 0
 384.709960938 598.470703125 394.264648438 501.555664062 372.424804688 406.004882812 c 0
 282.586914062 12.96484375 87.1396484375 -373.41015625 -56.185546875 -34.8896484375 c 0
 -199.510742188 303.629882812 124.60546875 368.0703125 306.904296875 313.185546875 c 0
 433.849609375 274.96484375 536.224609375 264.044921875 654.979492188 315.915039062 c 9
  Spiro
    654.98 315.915 v
    606.236 297.289 o
    478.89 274.046 o
    302.81 295.44 o
    101.691 304.685 o
    -48.3357 201.444 o
    -38.44 -29.43 o
    99.0825 -135.921 o
    239.147 55.8869 o
    347.855 410.1 o
    374.908 520.525 o
    434.884 590.838 o
    577.175 617.58 o
    655.715 551.076 o
    541.089 453.66 o
    311 492 o
    116.329 552.575 o
    91.0153 457.921 o
    110.345 386.895 v
    87.5368 463.201 o
    107.537 566.495 o
    302.81 507.015 o
    509.942 473.163 o
    633.767 551.116 o
    577.175 603.93 o
    443.489 571.479 o
    392.418 498.486 o
    372.425 406.005 o
    253.369 42.0966 o
    98.5115 -158.444 o
    -56.185 -34.89 o
    -66.3621 217.829 o
    100.108 322.605 o
    306.905 313.185 o
    427.062 285.396 o
    540.281 283.675 o
    0 0 z
  EndSpiro
EndSplineSet
EndChar

StartChar: G
Encoding: 71 71 38
Width: 618
Flags: HW
LayerCount: 2
Fore
SplineSet
105 317 m 5
 141.869140625 143.141601562 l 5
 310.869140625 88.1416015625 l 5
 443 207 l 5
 406.131835938 380.858398438 l 5
 237.131835938 435.858398438 l 5
 105 317 l 5
96 25 m 5
 96 25 355.5 -67 357.5 -67 c 4
 359.5 -67 484 39 484 39 c 5
 467.072265625 111.658203125 l 5
 347.5078125 4.130859375 l 5
 89.5078125 88.130859375 l 5
 33.25390625 353.565429688 l 5
 235 535 l 5
 493 451 l 5
 549.25390625 185.565429688 l 5
 550 186 579 43 579 43 c 5
 357.5 -136 l 5
 78 -22 l 5
 96 25 l 5
EndSplineSet
EndChar

StartChar: H
Encoding: 72 72 39
Width: 654
Flags: W
HStem: 5.00488 49.9902<64.552 138.005 187.995 261.448 416.552 490.005 539.995 613.448> 311.005 49.9902<187.995 490.005> 591.005 49.9902<39.552 138.005>
VStem: 138.005 49.9902<54.9951 311.005 360.995 591.005> 490.005 49.9902<54.9951 311.005>
LayerCount: 2
Fore
SplineSet
187.995117188 360.995117188 m 1
 515 360.995117188 l 2
 521.399414062 360.995117188 527.799804688 358.555664062 532.677734375 353.677734375 c 0
 537.555664062 348.799804688 539.995117188 342.399414062 539.995117188 336 c 2
 539.995117188 54.9951171875 l 1
 596 54.9951171875 l 2
 602.399414062 54.9951171875 608.799804688 52.5556640625 613.677734375 47.677734375 c 0
 618.555664062 42.7998046875 620.995117188 36.3994140625 620.995117188 30 c 0
 620.995117188 23.6005859375 618.555664062 17.2001953125 613.677734375 12.322265625 c 0
 608.799804688 7.4443359375 602.399414062 5.0048828125 596 5.0048828125 c 2
 515 5.0048828125 l 1
 434 5.0048828125 l 2
 427.600585938 5.0048828125 421.200195312 7.4443359375 416.322265625 12.322265625 c 0
 411.444335938 17.2001953125 409.004882812 23.6005859375 409.004882812 30 c 0
 409.004882812 36.3994140625 411.444335938 42.7998046875 416.322265625 47.677734375 c 0
 421.200195312 52.5556640625 427.600585938 54.9951171875 434 54.9951171875 c 2
 490.004882812 54.9951171875 l 1
 490.004882812 311.004882812 l 1
 187.995117188 311.004882812 l 1
 187.995117188 54.9951171875 l 1
 244 54.9951171875 l 2
 250.399414062 54.9951171875 256.799804688 52.5556640625 261.677734375 47.677734375 c 0
 266.555664062 42.7998046875 268.995117188 36.3994140625 268.995117188 30 c 0
 268.995117188 23.6005859375 266.555664062 17.2001953125 261.677734375 12.322265625 c 0
 256.799804688 7.4443359375 250.399414062 5.0048828125 244 5.0048828125 c 2
 163 5.0048828125 l 1
 82 5.0048828125 l 2
 75.6005859375 5.0048828125 69.2001953125 7.4443359375 64.322265625 12.322265625 c 0
 59.4443359375 17.2001953125 57.0048828125 23.6005859375 57.0048828125 30 c 0
 57.0048828125 36.3994140625 59.4443359375 42.7998046875 64.322265625 47.677734375 c 0
 69.2001953125 52.5556640625 75.6005859375 54.9951171875 82 54.9951171875 c 2
 138.004882812 54.9951171875 l 1
 138.004882812 591.004882812 l 1
 57 591.004882812 l 2
 50.6005859375 591.004882812 44.2001953125 593.444335938 39.322265625 598.322265625 c 0
 34.4443359375 603.200195312 32.0048828125 609.600585938 32.0048828125 616 c 0
 32.0048828125 622.399414062 34.4443359375 628.799804688 39.322265625 633.677734375 c 0
 44.2001953125 638.555664062 50.6005859375 640.995117188 57 640.995117188 c 2
 163 640.995117188 l 2
 169.399414062 640.995117188 175.799804688 638.555664062 180.677734375 633.677734375 c 0
 185.555664062 628.799804688 187.995117188 622.399414062 187.995117188 616 c 2
 187.995117188 360.995117188 l 1
EndSplineSet
EndChar

StartChar: I
Encoding: 73 73 40
Width: 366
Flags: W
HStem: 527 140<121.206 222.794>
VStem: 105 140<28.1732 63 449 485.292 549.799 644.201>
LayerCount: 2
Fore
SplineSet
286 501 m 1
 64 501 l 25
 64 501 105 474 105 449 c 27
 105 298 105 215 105 63 c 0
 105 20.2451171875 18 -1 18 -1 c 0
 343 -1 l 0
 343 -1 245 14.7294921875 245 63 c 0
 245 213 245 298 245 449 c 27
 245 474 286 501 286 501 c 1
102 597 m 0
 102 636 133 667 172 667 c 0
 211 667 242 636 242 597 c 0
 242 558 211 527 172 527 c 0
 133 527 102 558 102 597 c 0
EndSplineSet
EndChar

StartChar: J
Encoding: 74 74 41
Width: 648
Flags: W
HStem: 7 64<131.7 362.463> 523 120<516.745 609.255>
VStem: 503 120<536.745 629.255>
LayerCount: 2
Fore
SplineSet
503 583 m 0
 503 616 530 643 563 643 c 0
 596 643 623 616 623 583 c 0
 623 550 596 523 563 523 c 0
 530 523 503 550 503 583 c 0
173 482 m 25
 159 417 l 25
 535 419 l 25
 535 419 559 71 249 71 c 0
 -61 71 149 325 149 325 c 25
 71 325 l 25
 71 325 -137 7 251 7 c 0
 639 7 611 482 611 482 c 25
 173 482 l 25
EndSplineSet
EndChar

StartChar: K
Encoding: 75 75 42
Width: 480
Flags: W
HStem: 3 84<24 108 367 451> 88 84<24 108 281 365> 173 84<24 108 195 279> 258 84<24 108 109 194> 343 84<24 108 195 280> 428 84<24 108 281 365> 513 84<24 108>
VStem: 24 84<3 87 88 172 173 257 258 342 343 427 428 512 513 597> 109 85<258 342> 195 84<173 257 343 427> 281 84<88 172 428 512> 367 84<3 87>
LayerCount: 2
Fore
SplineSet
367 87 m 1
 451 87 l 1
 451 3 l 1
 367 3 l 1
 367 87 l 1
281 172 m 1
 365 172 l 1
 365 88 l 1
 281 88 l 1
 281 172 l 1
195 257 m 1
 279 257 l 1
 279 173 l 1
 195 173 l 1
 195 257 l 1
195 427 m 1
 280 427 l 1
 280 343 l 1
 195 343 l 1
 195 427 l 1
109 342 m 1
 194 342 l 1
 194 258 l 1
 109 258 l 1
 109 342 l 1
281 512 m 1
 365 512 l 1
 365 428 l 1
 281 428 l 1
 281 512 l 1
24 87 m 1
 108 87 l 1
 108 3 l 1
 24 3 l 1
 24 87 l 1
24 172 m 1
 108 172 l 1
 108 88 l 1
 24 88 l 1
 24 172 l 1
24 257 m 1
 108 257 l 1
 108 173 l 1
 24 173 l 1
 24 257 l 1
24 342 m 1
 108 342 l 1
 108 258 l 1
 24 258 l 1
 24 342 l 1
24 427 m 1
 108 427 l 1
 108 343 l 1
 24 343 l 1
 24 427 l 1
24 512 m 1
 108 512 l 1
 108 428 l 1
 24 428 l 1
 24 512 l 1
24 597 m 1
 108 597 l 1
 108 513 l 1
 24 513 l 1
 24 597 l 1
EndSplineSet
EndChar

StartChar: L
Encoding: 76 76 43
Width: 559
Flags: W
HStem: 30 180<207 531> 572 20G<25 207> 572 20G<25 207>
VStem: 25 182<210 592>
LayerCount: 2
Fore
SplineSet
25 562 m 1xd0
 207 562 l 1
 207 180 l 1
 531 180 l 1
 531 0 l 1
 99 0 l 1
 25 74 l 1
 25 562 l 1xd0
EndSplineSet
EndChar

StartChar: M
Encoding: 77 77 44
Width: 432
Flags: W
HStem: 1 21G<28.005 77.995 189.005 238.995 349.005 398.995> 590.005 49.9902<95.523 174.36 253.704 336.561>
VStem: 28.005 49.9902<1 576.275 624.371 664> 189.005 49.9902<1 532> 349.005 49.9902<1 538>
LayerCount: 2
Fore
SplineSet
214.098632812 603.940429688 m 1
 230.817382812 624.887695312 257.26953125 639.995117188 294 639.995117188 c 0
 327.107421875 639.995117188 352.25 628.456054688 368.874023438 611.83203125 c 0
 387.487304688 593.217773438 398.995117188 563.350585938 398.995117188 538 c 2
 398.995117188 1 l 1
 349.004882812 1 l 1
 349.004882812 538 l 1
 349.004882812 538 348.565429688 561.428710938 333.518554688 576.4765625 c 0
 326.451171875 583.543945312 315.59375 590.004882812 294 590.004882812 c 0
 274.337890625 590.004882812 263.96875 583.963867188 256.71484375 576.708984375 c 0
 240.502929688 560.497070312 239.051757812 532.947265625 238.995117188 531.737304688 c 2
 238.995117188 1 l 1
 189.004882812 1 l 1
 189.004882812 532 l 1
 189.004882812 532 188.247070312 559.88671875 171.734375 576.3984375 c 0
 164.407226562 583.7265625 153.658203125 590.004882812 133 590.004882812 c 0
 115.748046875 590.004882812 106.059570312 584.512695312 98.6552734375 577.109375 c 0
 81.095703125 559.548828125 78.2109375 527.10546875 77.9951171875 524.348632812 c 2
 77.9951171875 1 l 1
 28.0048828125 1 l 1
 28.0048828125 664 l 1
 77.9951171875 664 l 1
 77.9951171875 624.37109375 l 1
 92.6396484375 633.90625 111.126953125 639.995117188 133 639.995117188 c 0
 170.33203125 639.995117188 197.150390625 625.025390625 214.098632812 603.940429688 c 1
EndSplineSet
EndChar

StartChar: N
Encoding: 78 78 45
Width: 645
Flags: W
HStem: -0.0244141 21G<152.001 202>
VStem: 152.001 50.4805<-0.00683594 179.009 183.939 450.198> 558.251 48<36.0125 199.207>
LayerCount: 2
Fore
SplineSet
359 680.5 m 0
 378.380859375 680.5 390.374023438 679.221679688 398.212890625 678.072265625 c 0
 414.783203125 675.640625 427.399414062 671.423828125 439.935546875 665.03125 c 0
 453.83984375 657.94140625 466.466796875 648.390625 478.104492188 636.7265625 c 0
 499.041992188 615.741210938 516.708984375 587.91796875 531.66015625 555.59375 c 0
 558.569335938 497.416015625 576.657226562 424.659179688 588.80078125 351.146484375 c 0
 610.659179688 218.826171875 606.250976562 43.05859375 606.250976562 -13.4365234375 c 0
 606.250976562 -31.005859375 606 -41.0068359375 606 -41.0068359375 c 2
 551 36 l 1
 551 36 557 53 558.250976562 104.556640625 c 0
 560.993164062 217.5546875 552.604492188 566.5546875 399.119140625 659.46875 c 1
 360.078125 675.069335938 l 1
 352.203125 673.709960938 340.758789062 670.342773438 331.259765625 665.692382812 c 0
 322.5625 661.434570312 314.286132812 655.997070312 306.521484375 649.534179688 c 0
 292.536132812 637.893554688 280.181640625 622.926757812 269.329101562 605.361328125 c 0
 217.807617188 521.96875 199.780273438 378.21484375 195.581054688 250.916015625 c 1
 201.356445312 168.931640625 202.481445312 94.1611328125 202.481445312 47.9736328125 c 0
 202.481445312 17.9462890625 202 -0.0048828125 202 -0.0068359375 c 2
 152.000976562 -0.0244140625 l 2
 152.000976562 -0.0185546875 144.50390625 79.4033203125 144.50390625 183.888671875 c 0
 144.50390625 184.28515625 147.166015625 227.779296875 145.565429688 250.47265625 c 0
 134.838867188 402.643554688 144 567 19 660 c 1
 98 618 l 1
 133.181640625 582.818359375 152.040039062 542.428710938 168.353515625 463.717773438 c 1
 179.631835938 517.885742188 196.135742188 567.977539062 219.42578125 605.673828125 c 0
 231.676757812 625.50390625 245.833007812 642.065429688 262.279296875 654.405273438 c 0
 276.5625 665.123046875 291.684570312 672.583007812 311.989257812 676.696289062 c 0
 321.102539062 678.54296875 332.473632812 680.5 359 680.5 c 0
EndSplineSet
EndChar

StartChar: O
Encoding: 79 79 46
Width: 693
Flags: W
HStem: 6 120<259.325 433.475> 507.6 134.4<259.325 433.475>
VStem: 28 128<229.569 403.679> 537.6 126.4<229.569 403.679>
LayerCount: 2
Fore
SplineSet
156 316.799804688 m 0
 156 211.200195312 241.200195312 126 346.799804688 126 c 0
 452.400390625 126 537.599609375 211.200195312 537.599609375 316.799804688 c 0
 537.599609375 422.400390625 452.400390625 507.599609375 346.799804688 507.599609375 c 0
 241.200195312 507.599609375 156 422.400390625 156 316.799804688 c 0
28 324 m 0
 28 500 170 642 346 642 c 0
 522 642 664 500 664 324 c 0
 664 148 522 6 346 6 c 0
 170 6 28 148 28 324 c 0
EndSplineSet
EndChar

StartChar: P
Encoding: 80 80 47
Width: 526
Flags: W
HStem: 6 21G<36 122>
VStem: 36 86<6 244 392 612> 404 77<392 560>
LayerCount: 2
Fore
SplineSet
36 -224 m 29
 36 80 l 29
 404 162 l 29
 404 330 l 29
 122 382 l 29
 122 162 l 29
 36 146 l 29
 36 474 l 29
 481 388 l 29
 481 94 l 29
 122 14 l 29
 122 -224 l 29
 36 -224 l 29
EndSplineSet
EndChar

StartChar: Q
Encoding: 81 81 48
Width: 560
Flags: W
HStem: 7.91992 49.21<471.39 536.56> 249.98 61.1797<155.879 303.441> 593.12 61.1797<155.879 303.441>
VStem: 23.18 65.1699<378.375 525.905> 370.31 101.08<378.766 525.514> 408.88 62.5098<57.1299 367.224 537.056 655.63>
LayerCount: 2
Fore
SplineSet
23.1796875 202.139648438 m 0xf4
 23.1796875 313.860351562 113.620117188 404.299804688 225.33984375 404.299804688 c 0
 306.724609375 404.299804688 376.815429688 356.306640625 408.879882812 287.055664062 c 1
 408.879882812 405.629882812 l 1
 471.389648438 405.629882812 l 1
 471.389648438 -192.870117188 l 1
 536.559570312 -192.870117188 l 1
 536.559570312 -242.080078125 l 1
 462.080078125 -242.080078125 l 1
 424.83984375 -242.080078125 l 1
 408.879882812 -242.080078125 l 1
 408.879882812 117.223632812 l 1
 376.815429688 47.97265625 306.724609375 -0.01953125 225.33984375 -0.01953125 c 0
 113.620117188 -0.01953125 23.1796875 90.419921875 23.1796875 202.139648438 c 0xf4
88.349609375 202.139648438 m 0
 88.349609375 123.669921875 150.860351562 61.16015625 229.330078125 61.16015625 c 0
 307.799804688 61.16015625 370.309570312 123.669921875 370.309570312 202.139648438 c 0xf8
 370.309570312 280.610351562 307.799804688 343.120117188 229.330078125 343.120117188 c 0
 150.860351562 343.120117188 88.349609375 280.610351562 88.349609375 202.139648438 c 0
EndSplineSet
EndChar

StartChar: R
Encoding: 82 82 49
Width: 618
Flags: W
HStem: 560 20G<47.6 215.18 575.047 579.32>
LayerCount: 2
Fore
SplineSet
35 580 m 1
 215.1796875 573.700195312 l 1
 201.3203125 508.1796875 l 1
 201.3203125 508.1796875 290.267578125 548.428710938 372.6796875 559.83984375 c 0
 454.580078125 571.1796875 579.3203125 561.100585938 579.3203125 561.100585938 c 1
 547.8203125 413.6796875 l 1
 547.8203125 413.6796875 487.33984375 503.139648438 387.799804688 510.700195312 c 0
 289 518.204101562 193.759765625 460.299804688 193.759765625 460.299804688 c 1
 193.759765625 460.299804688 161 283.900390625 188.719726562 170.5 c 0
 205.345703125 102.484375 274.400390625 3 274.400390625 3 c 1
 52.6396484375 3 l 1
 52.6396484375 3 103.9609375 83.359375 109.33984375 213.33984375 c 0
 116.900390625 396.040039062 113.120117188 465.33984375 113.120117188 465.33984375 c 1
 113.120117188 465.33984375 114.379882812 505.66015625 89.1796875 537.16015625 c 0
 75.6376953125 554.087890625 60.2001953125 571.1796875 35 580 c 1
EndSplineSet
EndChar

StartChar: S
Encoding: 83 83 50
Width: 668
Flags: W
HStem: 5.95117 89.9434<46 505.633> 279.215 89.9248<139.504 508.441> 508.045 89.9551<138.601 627>
VStem: 31.009 89.9824<388.252 486.778> 542.009 89.9824<130 246.999>
LayerCount: 2
Fore
SplineSet
425.666015625 279.21484375 m 0
 419.94921875 279.21484375 421.3671875 279.008789062 418 279.008789062 c 2
 202.48046875 279.008789062 l 2
 197.4765625 279.008789062 176.418945312 279.387695312 149.526367188 286.778320312 c 0
 126.478515625 293.111328125 97.943359375 304.798828125 73.525390625 329.215820312 c 0
 48.26953125 354.47265625 31.0087890625 391.997070312 31.0087890625 439 c 0
 31.0087890625 485.741210938 48.0888671875 523.116210938 73.25390625 548.28125 c 0
 97.767578125 572.794921875 126.479492188 584.372070312 149.6328125 590.578125 c 0
 175.362304688 597.474609375 195.7734375 598 202.00390625 598 c 0
 202.5625 598 203.006835938 597.995117188 203.331054688 597.991210938 c 2
 627 597.991210938 l 1
 627 508.008789062 l 1
 203 508.008789062 l 2
 202.028320312 508.008789062 202.4609375 508.044921875 200.892578125 508.044921875 c 0
 197.458007812 508.044921875 187.786132812 507.625976562 173.041992188 503.674804688 c 0
 159.381835938 500.012695312 145.704101562 493.453125 136.893554688 484.641601562 c 0
 128.346679688 476.094726562 120.991210938 464.215820312 120.991210938 439 c 0
 120.991210938 413.659179688 128.428710938 401.592773438 137.165039062 392.85546875 c 0
 146.08984375 383.931640625 159.838867188 377.282226562 173.482421875 373.533203125 c 0
 188.452148438 369.419921875 201.922851562 369.002929688 203 368.991210938 c 2
 416.912109375 368.991210938 l 2
 418.415039062 369.055664062 421.016601562 369.139648438 424.546875 369.139648438 c 0
 436.580078125 369.139648438 459.41015625 368.161132812 486.362304688 362.08203125 c 0
 516.748046875 355.228515625 554.16015625 341.715820312 584.840820312 311.034179688 c 0
 613.154296875 282.721679688 631.991210938 241.174804688 631.991210938 189 c 0
 631.991210938 136.166992188 612.700195312 94.21484375 584.111328125 65.6259765625 c 0
 553.63671875 35.1513671875 516.668945312 21.2548828125 486.537109375 13.9912109375 c 0
 456.810546875 6.826171875 432.1484375 5.951171875 421.654296875 5.951171875 c 0
 419.66015625 5.951171875 418.177734375 5.982421875 417.26953125 6.0087890625 c 2
 46 6.0087890625 l 1
 46 95.9912109375 l 1
 418 95.9912109375 l 2
 420.201171875 95.9912109375 419.25390625 95.89453125 422.88671875 95.89453125 c 0
 429.329101562 95.89453125 444.815429688 96.5107421875 465.338867188 101.458007812 c 0
 486.013671875 106.44140625 506.983398438 115.77734375 520.471679688 129.265625 c 0
 532.579101562 141.374023438 542.008789062 157.881835938 542.008789062 189 c 0
 542.008789062 219.768554688 532.810546875 235.786132812 521.202148438 247.39453125 c 0
 508.018554688 260.578125 487.21484375 269.631835938 466.454101562 274.314453125 c 0
 447.688476562 278.546875 433.041992188 279.21484375 425.666015625 279.21484375 c 0
EndSplineSet
EndChar

StartChar: T
Encoding: 84 84 51
Width: 454
Flags: W
HStem: 9.00488 99.9902<217.896 420> 491.005 99.9902<35 90.005 189.995 332> 610.005 69.9902<35 90.005 189.995 246>
VStem: 90.005 99.9902<136.111 491.005 590.995 610.005 679.995 753>
LayerCount: 2
Fore
SplineSet
189.995117188 191 m 2
 189.995117188 190.416992188 189.979492188 190.447265625 189.979492188 189.73046875 c 0
 189.979492188 185.368164062 190.840820312 156.551757812 212.936523438 134.456054688 c 0
 226.10546875 121.287109375 248.206054688 108.995117188 290 108.995117188 c 2
 420 108.995117188 l 1
 420 9.0048828125 l 1
 290 9.0048828125 l 2
 237.6328125 9.0048828125 171.018554688 35.6640625 147.581054688 59.1005859375 c 0
 112.076171875 94.60546875 89.978515625 178.836914062 89.978515625 189.423828125 c 0
 89.978515625 190.33203125 89.994140625 190.993164062 90.0048828125 191.379882812 c 2
 90.0048828125 491.004882812 l 1
 35 491.004882812 l 1
 35 590.995117188 l 1
 90.0048828125 590.995117188 l 1
 90.0048828125 610.004882812 l 1
 35 610.004882812 l 1
 35 679.995117188 l 1
 90.0048828125 679.995117188 l 1
 90.0048828125 753 l 1
 189.995117188 753 l 1
 189.995117188 679.995117188 l 1
 246 679.995117188 l 1
 246 610.004882812 l 1
 189.995117188 610.004882812 l 1
 189.995117188 590.995117188 l 1
 332 590.995117188 l 1
 332 491.004882812 l 1
 189.995117188 491.004882812 l 1
 189.995117188 191 l 2
EndSplineSet
EndChar

StartChar: U
Encoding: 85 85 52
Width: 561
Flags: W
HStem: 7.14258 55.6143<104.181 404.307> 536.707 20G<56.44 63.56 489.203 496.322>
VStem: 32.193 55.6133<85.1953 548.311> 464.955 55.6143<97.2286 548.311>
LayerCount: 2
Fore
SplineSet
32.193359375 528.900390625 m 2
 32.193359375 536.01953125 34.9072265625 543.139648438 40.333984375 548.56640625 c 0
 45.759765625 553.993164062 52.880859375 556.70703125 60 556.70703125 c 0
 67.119140625 556.70703125 74.240234375 553.993164062 79.666015625 548.56640625 c 0
 85.0927734375 543.139648438 87.806640625 536.01953125 87.806640625 528.900390625 c 2
 87.806640625 85.1953125 l 1
 104.180664062 62.7568359375 l 1
 393.014648438 62.7568359375 l 2
 400.493164062 65.2255859375 420.044921875 72.943359375 437.866210938 90.7646484375 c 0
 452.71484375 105.61328125 464.955078125 126.202148438 464.955078125 158.4375 c 2
 464.955078125 528.900390625 l 2
 464.955078125 536.01953125 467.668945312 543.139648438 473.095703125 548.56640625 c 0
 478.522460938 553.993164062 485.643554688 556.70703125 492.762695312 556.70703125 c 0
 499.881835938 556.70703125 507.001953125 553.993164062 512.428710938 548.56640625 c 0
 517.85546875 543.139648438 520.569335938 536.01953125 520.569335938 528.900390625 c 2
 520.569335938 158.4375 l 2
 520.569335938 110.157226562 500.453125 74.685546875 477.19921875 51.4326171875 c 0
 444.172851562 18.40625 406.5703125 8.6953125 404.306640625 8.08984375 c 2
 397.087890625 7.142578125 l 1
 90.037109375 7.142578125 l 1
 67.5517578125 18.5751953125 l 1
 37.5146484375 59.73828125 l 1
 32.193359375 76.1123046875 l 1
 32.193359375 528.900390625 l 2
EndSplineSet
EndChar

StartChar: V
Encoding: 86 86 53
Width: 873
Flags: W
HStem: 0 21G<409.755 436.245> 584 20G<23 235.346 610.654 823>
LayerCount: 2
Fore
SplineSet
23 604 m 25
 223 604 l 25
 423 280 l 8
 623 604 l 25
 823 604 l 25
 423 0 l 0
 23 604 l 25
EndSplineSet
EndChar

StartChar: W
Encoding: 87 87 54
Width: 833
Flags: W
HStem: 14.0186 99.873<156.69 318.877 497.219 673.249> 588.99 20G<140.993 162.795 670.511 694.483>
VStem: 20.836 100.134<151.918 386.201> 105.36 93.6299<531.305 603.043> 345.493 118.199<192.122 382.101> 355.021 102.645<272.867 388.229> 710.332 100.139<153.283 390.371>
LayerCount: 2
Fore
SplineSet
189.501953125 527.186523438 m 1024xc2
198.990234375 559 m 1024xd2
198.990234375 559 m 1024
  Spiro
    198.99 559 {
    0 0 z
  EndSpiro
407.606445312 82.2373046875 m 1
 377.143554688 47.4326171875 325.104492188 14.0185546875 237.54296875 14.0185546875 c 0
 200.938476562 14.0185546875 131.814453125 18.3203125 80.8359375 69.298828125 c 0
 45.9970703125 104.137695312 20.8359375 158.985351562 20.8359375 244.8125 c 0xe6
 20.8359375 290.283203125 28.890625 384.076171875 80.1064453125 522.405273438 c 0
 80.3359375 523.024414062 98.076171875 570.583984375 105.360351562 583.4609375 c 0
 106.34765625 585.205078125 110 590 113.6328125 594.34765625 c 0
 120.810546875 602.938476562 132.986328125 608.990234375 149 608.990234375 c 0
 176.590820312 608.990234375 200 597 198.990234375 559 c 0xd2
 198.8046875 552.002929688 189.501953125 527.186523438 189.501953125 527.186523438 c 1
 182.043945312 509.654296875 120.969726562 362.486328125 120.969726562 244.375 c 0
 120.969726562 127.961914062 176.965820312 113.891601562 239.4765625 113.891601562 c 0
 308.865234375 113.891601562 339.317382812 143.223632812 353.953125 189.045898438 c 1
 349.569335938 208.471679688 345.493164062 235.807617188 345.493164062 270.479492188 c 0xea
 345.493164062 321.625 354.477539062 359.31640625 355.020507812 361.643554688 c 0xc6
 360.228515625 383.979492188 380.204101562 400.208007812 403.686523438 400.208007812 c 0
 426.900390625 400.208007812 446.721679688 384.334960938 452.181640625 362.330078125 c 0
 452.760742188 359.993164062 463.692382812 316.782226562 463.692382812 260.083984375 c 0xca
 463.692382812 244.385742188 462.873046875 218.524414062 457.665039062 190.825195312 c 1xc6
 474.265625 144.76953125 508.485351562 112.778320312 585.971679688 112.778320312 c 0
 648.500976562 112.778320312 710.33203125 125.211914062 710.33203125 246.338867188 c 0
 710.33203125 273.6640625 707.108398438 303.7265625 701.62109375 333.736328125 c 0
 682.232421875 439.765625 638.66015625 537.142578125 638.63671875 537.1953125 c 0
 635.8515625 543.420898438 634.302734375 550.319335938 634.302734375 557.576171875 c 0
 634.302734375 585.176757812 656.7109375 607.584960938 684.311523438 607.584960938 c 0
 704.655273438 607.584960938 722.177734375 595.411132812 729.935546875 578.037109375 c 0
 732.791992188 571.651367188 810.470703125 396.596679688 810.470703125 247.245117188 c 0
 810.470703125 180.118164062 795.053710938 115.125976562 749.517578125 69.58984375 c 0
 695.953125 16.025390625 622.625976562 12.8779296875 587.71875 12.8779296875 c 0
 528.44921875 12.8779296875 458.168945312 27.1767578125 407.606445312 82.2373046875 c 1
  Spiro
    407.606 82.2369 v
    369.481 49.1125 o
    313.715 23.9521 o
    237.543 14.019 o
    192.028 17.0146 o
    135.929 32.3345 o
    80.836 69.2993 o
    49.823 111.165 o
    28.635 168.972 o
    20.836 244.812 o
    24.812 306.173 o
    42.004 399.17 o
    80.107 522.405 o
    85.128 535.625 o
    95.638 562.073 o
    105.361 583.461 o
    105.932 585.045 o
    107.688 587.895 o
    113.632 594.347 o
    122.751 601.655 o
    134.486 606.957 o
    149 608.99 o
    174.201 602.174 o
    192.174 584.201 o
    198.99 559 ]
    189.502 527.187 v
    168.45 472.406 o
    137.052 366.175 o
    120.97 244.375 o
    137.771 158.865 o
    181.023 121.832 o
    239.476 113.891 o
    296.697 123.175 o
    333.217 149.229 o
    353.953 189.046 v
    349.815 211.062 o
    346.71 238.304 o
    345.493 270.48 o
    347.839 316.289 o
    352.313 348.363 o
    355.02 361.643 o
    364.72 381.552 o
    381.81 395.183 o
    403.687 400.208 o
    425.343 395.287 o
    442.354 381.913 o
    452.181 362.33 o
    455.418 347.409 o
    460.842 311.227 o
    463.692 260.084 o
    463.288 241.328 o
    461.54 217.578 o
    457.665 190.825 v
    481.057 150.157 o
    522.009 122.759 o
    585.972 112.778 o
    645.949 120.469 o
    692.02 157.937 o
    710.332 246.339 o
    709.295 274.444 o
    706.314 303.842 o
    701.621 333.737 o
    676.708 433.507 o
    650.646 508.04 o
    638.637 537.195 o
    636.277 543.627 o
    634.806 550.457 o
    634.302 557.576 o
    641.121 582.786 o
    659.101 600.766 o
    684.311 607.585 o
    703.44 603.793 o
    719.193 593.406 o
    729.935 578.037 o
    752.049 522.725 o
    790.261 397.821 o
    810.47 247.245 o
    804.799 181.535 o
    785.532 120.914 o
    749.518 69.5903 o
    691.581 31.1057 o
    633.224 15.6702 o
    587.719 12.8775 o
    525.98 18.6115 o
    463.543 39.8145 o
    0 0 z
  EndSpiro
EndSplineSet
EndChar

StartChar: X
Encoding: 88 88 55
Width: 736
Flags: W
HStem: -0.236328 21G<165.263 205.263> 657.512 20G<136.969 176.969 557 597>
LayerCount: 2
Fore
SplineSet
692.955078125 141.524414062 m 1
 548.706054688 -2.724609375 l 1
 365.740234375 180.241210938 l 1
 185.262695312 -0.236328125 l 1
 41.013671875 144.012695312 l 1
 221.491210938 324.490234375 l 1
 12.71875 533.26171875 l 1
 156.96875 677.51171875 l 1
 365.740234375 468.740234375 l 1
 577 680 l 1
 721.25 535.75 l 1
 509.989257812 324.490234375 l 1
 692.955078125 141.524414062 l 1
EndSplineSet
EndChar

StartChar: Y
Encoding: 89 89 56
Width: 691
Flags: HW
LayerCount: 2
Fore
SplineSet
469 383 m 5
 550 475 l 5
 550 475 535 269 597 165 c 4
 659 61 720 -113 577 -101 c 4
 434 -89 19 -97 19 -97 c 5
 53 -7 l 5
 53 -7 292.370117188 -73.1279296875 447 -35 c 4
 593 1 559 88 559 88 c 5
 552.580078125 109.04296875 l 5
 511.674804688 109.599609375 332.154296875 116.130859375 246 187 c 4
 184 238 156 353 155 357 c 6
 155 357 237 409 238 411 c 4
 239 413 242 309 305 254 c 4
 366.663085938 200.166992188 498.1171875 187.673828125 529.276367188 185.426757812 c 5
 469 383 l 5
EndSplineSet
EndChar

StartChar: Z
Encoding: 90 90 57
Width: 681
Flags: HW
LayerCount: 2
Fore
SplineSet
20.83984375 530.637695312 m 25
 20.83984375 444.770507812 l 25
 475.0546875 444.770507812 l 25
 20.83984375 89.2626953125 l 25
 20.83984375 5 l 25
 650 5 l 25
 650 89.2626953125 l 25
 189.364257812 89.2626953125 l 25
 650 444.770507812 l 25
 650 530.637695312 l 25
 20.83984375 530.637695312 l 25
EndSplineSet
EndChar

StartChar: seven
Encoding: 55 55 58
Width: 1000
Flags: H
LayerCount: 2
Fore
SplineSet
147 664 m 25
 229 516 l 25
 560 516 l 29
 217 2 l 25
 454 2 l 25
 884 664 l 25
 147 664 l 25
EndSplineSet
EndChar

StartChar: eight
Encoding: 56 56 59
Width: 1000
Flags: H
LayerCount: 2
Fore
SplineSet
383 232 m 1
 432 272 l 0
 625 272 l 0
 667 232 l 1
 667 92 l 1
 625 52 l 0
 432 52 l 0
 383 92 l 1
 383 232 l 1
221 659 m 1
 279 726 l 0
 543 726 l 0
 605 659 l 1
 605 394 l 1
 543 340 l 0
 279 340 l 0
 221 394 l 1
 221 659 l 1
162 704 m 25
 162 365 l 25
 221 310 l 25
 162 250 l 25
 162 62 l 25
 221 14 l 25
 667 14 l 25
 730 62 l 25
 730 250 l 25
 667 310 l 25
 730 365 l 25
 730 704 l 25
 667 766 l 25
 221 766 l 25
 162 704 l 25
EndSplineSet
EndChar

StartChar: nine
Encoding: 57 57 60
Width: 1000
Flags: HW
LayerCount: 2
Fore
SplineSet
597.844726562 426.198242188 m 0
 596.25 436.568359375 593.59375 448.49609375 591.922851562 459.364257812 c 0
 582.641601562 519.681640625 601.498046875 564.487304688 622.283203125 593.890625 c 1
 582.321289062 595.700195312 539.895507812 608.982421875 499.236328125 620.8984375 c 0
 458.716796875 632.7734375 419.784179688 643.638671875 392.963867188 644.791015625 c 0
 385.984375 645.091796875 380.364257812 644.815429688 375.80859375 644.115234375 c 0
 365.922851562 642.59375 361.049804688 639.075195312 358.150390625 635.122070312 c 0
 353.666015625 629.0078125 347.946289062 612.138671875 352.594726562 576.309570312 c 0
 360.919921875 512.122070312 352.025390625 457.006835938 345.599609375 416.41015625 c 0
 342.555664062 397.180664062 340.16796875 381.154296875 339.868164062 370.245117188 c 0
 339.745117188 365.705078125 340.03125 362.311523438 340.389648438 359.973632812 c 0
 340.758789062 357.584960938 341.135742188 356.454101562 341.392578125 355.953125 c 0
 342.254882812 355.508789062 351.404296875 351.62109375 375.098632812 353.760742188 c 0
 380.409179688 354.240234375 386.3046875 354.9765625 392.806640625 355.9765625 c 0
 422.78125 360.587890625 465.634765625 370.825195312 523.442382812 387.538085938 c 0
 524.678710938 387.895507812 525.935546875 388.171875 527.206054688 388.3671875 c 0
 534.733398438 389.525390625 542.701171875 387.813476562 549.322265625 382.959960938 c 0
 555.942382812 378.104492188 559.969726562 371.01953125 561.127929688 363.4921875 c 0
 563.395507812 348.756835938 553.623046875 334.334960938 540.015625 330.400390625 c 0
 481.657226562 313.529296875 437.586914062 302.633789062 403.03125 297.318359375 c 0
 363.595703125 291.250976562 330.953125 289.815429688 306.143554688 308.009765625 c 0
 290.624023438 319.389648438 283.840820312 336.06640625 281.469726562 351.474609375 c 0
 281.114257812 353.784179688 280.857421875 356.063476562 280.686523438 358.294921875 c 0
 279.028320312 379.846679688 282.981445312 401.41796875 286.838867188 425.782226562 c 0
 293.248046875 466.284179688 300.663085938 514.202148438 293.598632812 568.666992188 c 0
 288.1171875 610.927734375 291.579101562 644.95703125 310.170898438 670.30859375 c 0
 324.912109375 690.411132812 345.783203125 699.557617188 367.20703125 702.853515625 c 0
 376.721679688 704.318359375 386.346679688 704.627929688 395.588867188 704.229492188 c 0
 434.00390625 702.578125 475.40625 689.897460938 516 678 c 0
 563.615234375 664.044921875 609.891601562 651.638671875 638.501953125 653.387695312 c 0
 653.15625 654.283203125 663.684570312 654.754882812 672.700195312 654.366210938 c 0
 676.762695312 654.190429688 680.580078125 653.901367188 685.185546875 652.840820312 c 0
 696.068359375 650.3359375 709.665039062 641.717773438 712.177734375 625.38671875 c 0
 713.983398438 613.655273438 708.440429688 603.380859375 704.765625 598.369140625 c 0
 700.620117188 592.715820312 696.93359375 589.229492188 692.826171875 584.995117188 c 0
 686.34375 578.307617188 679.022460938 570.696289062 672.1640625 561.342773438 c 0
 657.352539062 541.147460938 643.797851562 513.296875 650.606445312 469.041015625 c 0
 652.247070312 458.380859375 654.783203125 447.0234375 656.357421875 436.80078125 c 0
 666.513671875 370.776367188 660.0546875 322.911132812 652.935546875 271.766601562 c 0
 644.939453125 214.325195312 635.834960938 150.27734375 645.155273438 35.935546875 c 0
 645.716796875 29.0517578125 643.899414062 21.9423828125 639.499023438 15.94140625 c 0
 634.642578125 9.3203125 627.557617188 5.2939453125 620.030273438 4.1357421875 c 0
 612.504882812 2.9775390625 604.53515625 4.6884765625 597.916015625 9.5439453125 c 0
 591.294921875 14.3984375 587.268554688 21.484375 586.109375 29.01171875 c 0
 586.001953125 29.7158203125 585.91796875 30.423828125 585.860351562 31.1328125 c 0
 576.143554688 150.329101562 585.97265625 222.296875 594.010742188 280.041992188 c 0
 601.122070312 331.123046875 606.619140625 369.16796875 597.844726562 426.198242188 c 0
EndSplineSet
EndChar
